<mxfile host="7fb84f03-c720-47f0-8fb4-ca6112e4760b" modified="2020-07-29T12:25:23.985Z" agent="5.0 (Macintosh; Intel Mac OS X 10_15_5) AppleWebKit/537.36 (KHTML, like Gecko) Code/1.47.0 Chrome/78.0.3904.130 Electron/7.3.2 Safari/537.36" etag="ElCiHak-9PYbdc1A8J7R" version="13.1.3">
    <diagram id="6hGFLwfOUW9BJ-s0fimq" name="Page-1">
        <mxGraphModel dx="1122" dy="785" grid="1" gridSize="10" guides="1" tooltips="1" connect="1" arrows="1" fold="1" page="1" pageScale="1" pageWidth="827" pageHeight="1169" math="0" shadow="0">
            <root>
                <mxCell id="0"/>
                <mxCell id="1" parent="0"/>
                <mxCell id="4" style="edgeStyle=orthogonalEdgeStyle;rounded=0;orthogonalLoop=1;jettySize=auto;html=1;exitX=0.5;exitY=1;exitDx=0;exitDy=0;" edge="1" parent="1" source="2" target="3">
                    <mxGeometry relative="1" as="geometry"/>
                </mxCell>
                <mxCell id="2" value="&lt;div style=&quot;color: rgb(171 , 178 , 191) ; background-color: rgb(40 , 44 , 52) ; font-family: &amp;#34;monaco&amp;#34; , &amp;#34;menlo&amp;#34; , &amp;#34;monaco&amp;#34; , &amp;#34;courier new&amp;#34; , monospace ; font-weight: normal ; font-size: 13px ; line-height: 20px&quot;&gt;&lt;div&gt;&lt;span style=&quot;color: #c678dd&quot;&gt;static&lt;/span&gt;&lt;span style=&quot;color: #abb2bf&quot;&gt; &lt;/span&gt;&lt;span style=&quot;color: #c678dd&quot;&gt;unsigned&lt;/span&gt;&lt;span style=&quot;color: #abb2bf&quot;&gt; &lt;/span&gt;&lt;span style=&quot;color: #c678dd&quot;&gt;int&lt;/span&gt;&lt;/div&gt;&lt;div&gt;&lt;span style=&quot;color: #61afef&quot;&gt;ip_vs_local_reply4&lt;/span&gt;&lt;span style=&quot;color: #abb2bf&quot;&gt;(&lt;/span&gt;&lt;span style=&quot;color: #c678dd&quot;&gt;const&lt;/span&gt;&lt;span style=&quot;color: #e06c75&quot;&gt; &lt;/span&gt;&lt;span style=&quot;color: #c678dd&quot;&gt;struct&lt;/span&gt;&lt;span style=&quot;color: #e06c75&quot;&gt; &lt;/span&gt;&lt;span style=&quot;color: #e5c07b&quot;&gt;nf_hook_ops&lt;/span&gt;&lt;span style=&quot;color: #e06c75&quot;&gt; &lt;/span&gt;&lt;span style=&quot;color: #c678dd&quot;&gt;*&lt;/span&gt;&lt;span style=&quot;color: #e06c75 ; font-style: italic&quot;&gt;ops&lt;/span&gt;&lt;span style=&quot;color: #abb2bf&quot;&gt;,&lt;/span&gt;&lt;span style=&quot;color: #e06c75&quot;&gt; &lt;/span&gt;&lt;span style=&quot;color: #c678dd&quot;&gt;struct&lt;/span&gt;&lt;span style=&quot;color: #e06c75&quot;&gt; &lt;/span&gt;&lt;span style=&quot;color: #e5c07b&quot;&gt;sk_buff&lt;/span&gt;&lt;span style=&quot;color: #e06c75&quot;&gt; &lt;/span&gt;&lt;span style=&quot;color: #c678dd&quot;&gt;*&lt;/span&gt;&lt;span style=&quot;color: #e06c75 ; font-style: italic&quot;&gt;skb&lt;/span&gt;&lt;span style=&quot;color: #abb2bf&quot;&gt;,&lt;/span&gt;&lt;/div&gt;&lt;div&gt;&lt;span style=&quot;color: #e06c75&quot;&gt;&lt;/span&gt;&lt;span style=&quot;color: #c678dd&quot;&gt;&amp;nbsp; &amp;nbsp; &amp;nbsp; &amp;nbsp; &amp;nbsp; &amp;nbsp; &amp;nbsp; &amp;nbsp; &amp;nbsp; &amp;nbsp;const&lt;/span&gt;&lt;span style=&quot;color: #e06c75&quot;&gt; &lt;/span&gt;&lt;span style=&quot;color: #c678dd&quot;&gt;struct&lt;/span&gt;&lt;span style=&quot;color: #e06c75&quot;&gt; &lt;/span&gt;&lt;span style=&quot;color: #e5c07b&quot;&gt;net_device&lt;/span&gt;&lt;span style=&quot;color: #e06c75&quot;&gt; &lt;/span&gt;&lt;span style=&quot;color: #c678dd&quot;&gt;*&lt;/span&gt;&lt;span style=&quot;color: #e06c75 ; font-style: italic&quot;&gt;in&lt;/span&gt;&lt;span style=&quot;color: #abb2bf&quot;&gt;,&lt;/span&gt;&lt;span style=&quot;color: #e06c75&quot;&gt; &lt;/span&gt;&lt;span style=&quot;color: #c678dd&quot;&gt;const&lt;/span&gt;&lt;span style=&quot;color: #e06c75&quot;&gt; &lt;/span&gt;&lt;span style=&quot;color: #c678dd&quot;&gt;struct&lt;/span&gt;&lt;span style=&quot;color: #e06c75&quot;&gt; &lt;/span&gt;&lt;span style=&quot;color: #e5c07b&quot;&gt;net_device&lt;/span&gt;&lt;span style=&quot;color: #e06c75&quot;&gt; &lt;/span&gt;&lt;span style=&quot;color: #c678dd&quot;&gt;*&lt;/span&gt;&lt;span style=&quot;color: #e06c75 ; font-style: italic&quot;&gt;out&lt;/span&gt;&lt;span style=&quot;color: #abb2bf&quot;&gt;,&lt;/span&gt;&lt;/div&gt;&lt;div&gt;&lt;span style=&quot;color: #e06c75&quot;&gt;&lt;/span&gt;&lt;span style=&quot;color: #c678dd&quot;&gt;&amp;nbsp; &amp;nbsp; &amp;nbsp; &amp;nbsp; &amp;nbsp; &amp;nbsp; &amp;nbsp; &amp;nbsp; &amp;nbsp; &amp;nbsp;const&lt;/span&gt;&lt;span style=&quot;color: #e06c75&quot;&gt; &lt;/span&gt;&lt;span style=&quot;color: #c678dd&quot;&gt;struct&lt;/span&gt;&lt;span style=&quot;color: #e06c75&quot;&gt; &lt;/span&gt;&lt;span style=&quot;color: #e5c07b&quot;&gt;nf_hook_state&lt;/span&gt;&lt;span style=&quot;color: #e06c75&quot;&gt; &lt;/span&gt;&lt;span style=&quot;color: #c678dd&quot;&gt;*&lt;/span&gt;&lt;span style=&quot;color: #e06c75 ; font-style: italic&quot;&gt;state&lt;/span&gt;&lt;span style=&quot;color: #abb2bf&quot;&gt;)&lt;/span&gt;&lt;/div&gt;&lt;div&gt;&lt;span style=&quot;color: #abb2bf&quot;&gt;{&lt;/span&gt;&lt;/div&gt;&lt;div&gt;&lt;span style=&quot;color: #abb2bf&quot;&gt;&lt;/span&gt;&lt;span style=&quot;color: #c678dd&quot;&gt;&amp;nbsp; &amp;nbsp; return&lt;/span&gt;&lt;span style=&quot;color: #abb2bf&quot;&gt; &lt;/span&gt;&lt;span style=&quot;color: #61afef&quot;&gt;ip_vs_out&lt;/span&gt;&lt;span style=&quot;color: #abb2bf&quot;&gt;(&lt;/span&gt;&lt;span style=&quot;color: #e06c75 ; font-style: italic&quot;&gt;ops&lt;/span&gt;&lt;span style=&quot;color: #abb2bf&quot;&gt;-&amp;gt;&lt;/span&gt;&lt;span style=&quot;color: #e06c75&quot;&gt;hooknum&lt;/span&gt;&lt;span style=&quot;color: #abb2bf&quot;&gt;, &lt;/span&gt;&lt;span style=&quot;color: #e06c75 ; font-style: italic&quot;&gt;skb&lt;/span&gt;&lt;span style=&quot;color: #abb2bf&quot;&gt;, &lt;/span&gt;&lt;span style=&quot;color: #61afef&quot;&gt;AF_INET&lt;/span&gt;&lt;span style=&quot;color: #abb2bf&quot;&gt;);&lt;/span&gt;&lt;/div&gt;&lt;div&gt;&lt;span style=&quot;color: #abb2bf&quot;&gt;}&lt;/span&gt;&lt;/div&gt;&lt;/div&gt;" style="text;whiteSpace=wrap;html=1;" vertex="1" parent="1">
                    <mxGeometry x="80" y="140" width="610" height="150" as="geometry"/>
                </mxCell>
                <mxCell id="6" style="edgeStyle=orthogonalEdgeStyle;rounded=0;orthogonalLoop=1;jettySize=auto;html=1;exitX=1;exitY=0.25;exitDx=0;exitDy=0;" edge="1" parent="1" source="3" target="5">
                    <mxGeometry relative="1" as="geometry"/>
                </mxCell>
                <mxCell id="7" value="handle_response" style="edgeLabel;html=1;align=center;verticalAlign=middle;resizable=0;points=[];" vertex="1" connectable="0" parent="6">
                    <mxGeometry x="0.0062" y="-5" relative="1" as="geometry">
                        <mxPoint as="offset"/>
                    </mxGeometry>
                </mxCell>
                <mxCell id="3" value="&lt;div style=&quot;background-color: rgb(40 , 44 , 52) ; font-family: &amp;#34;monaco&amp;#34; , &amp;#34;menlo&amp;#34; , &amp;#34;monaco&amp;#34; , &amp;#34;courier new&amp;#34; , monospace ; font-weight: normal ; font-size: 13px ; line-height: 20px&quot;&gt;&lt;div style=&quot;color: rgb(171 , 178 , 191)&quot;&gt;&lt;span style=&quot;color: #c678dd&quot;&gt;static&lt;/span&gt;&lt;span style=&quot;color: #abb2bf&quot;&gt; &lt;/span&gt;&lt;span style=&quot;color: #c678dd&quot;&gt;unsigned&lt;/span&gt;&lt;span style=&quot;color: #abb2bf&quot;&gt; &lt;/span&gt;&lt;span style=&quot;color: #c678dd&quot;&gt;int&lt;/span&gt;&lt;/div&gt;&lt;div style=&quot;color: rgb(171 , 178 , 191)&quot;&gt;&lt;span style=&quot;color: #61afef&quot;&gt;ip_vs_out&lt;/span&gt;&lt;span style=&quot;color: #abb2bf&quot;&gt;(&lt;/span&gt;&lt;span style=&quot;color: #c678dd&quot;&gt;unsigned&lt;/span&gt;&lt;span style=&quot;color: #e06c75&quot;&gt; &lt;/span&gt;&lt;span style=&quot;color: #c678dd&quot;&gt;int&lt;/span&gt;&lt;span style=&quot;color: #e06c75&quot;&gt; &lt;/span&gt;&lt;span style=&quot;color: #e06c75 ; font-style: italic&quot;&gt;hooknum&lt;/span&gt;&lt;span style=&quot;color: #abb2bf&quot;&gt;,&lt;/span&gt;&lt;span style=&quot;color: #e06c75&quot;&gt; &lt;/span&gt;&lt;span style=&quot;color: #c678dd&quot;&gt;struct&lt;/span&gt;&lt;span style=&quot;color: #e06c75&quot;&gt; &lt;/span&gt;&lt;span style=&quot;color: #e5c07b&quot;&gt;sk_buff&lt;/span&gt;&lt;span style=&quot;color: #e06c75&quot;&gt; &lt;/span&gt;&lt;span style=&quot;color: #c678dd&quot;&gt;*&lt;/span&gt;&lt;span style=&quot;color: #e06c75 ; font-style: italic&quot;&gt;skb&lt;/span&gt;&lt;span style=&quot;color: #abb2bf&quot;&gt;,&lt;/span&gt;&lt;span style=&quot;color: #e06c75&quot;&gt; &lt;/span&gt;&lt;span style=&quot;color: #c678dd&quot;&gt;int&lt;/span&gt;&lt;span style=&quot;color: #e06c75&quot;&gt; &lt;/span&gt;&lt;span style=&quot;color: #e06c75 ; font-style: italic&quot;&gt;af&lt;/span&gt;&lt;span style=&quot;color: #abb2bf&quot;&gt;)&lt;/span&gt;&lt;/div&gt;&lt;div style=&quot;color: rgb(171 , 178 , 191)&quot;&gt;&lt;span style=&quot;color: #abb2bf&quot;&gt;{&lt;/span&gt;&lt;/div&gt;&lt;div style=&quot;color: rgb(171 , 178 , 191)&quot;&gt;&lt;span style=&quot;color: #abb2bf&quot;&gt;&lt;/span&gt;&lt;span style=&quot;color: #c678dd&quot;&gt;&amp;nbsp; &amp;nbsp; struct&lt;/span&gt;&lt;span style=&quot;color: #abb2bf&quot;&gt; &lt;/span&gt;&lt;span style=&quot;color: #e5c07b&quot;&gt;net&lt;/span&gt;&lt;span style=&quot;color: #abb2bf&quot;&gt; &lt;/span&gt;&lt;span style=&quot;color: #c678dd&quot;&gt;*&lt;/span&gt;&lt;span style=&quot;color: #e06c75&quot;&gt;net&lt;/span&gt;&lt;span style=&quot;color: #abb2bf&quot;&gt; &lt;/span&gt;&lt;span style=&quot;color: #c678dd&quot;&gt;=&lt;/span&gt;&lt;span style=&quot;color: #abb2bf&quot;&gt; &lt;/span&gt;&lt;span style=&quot;color: #61afef&quot;&gt;NULL&lt;/span&gt;&lt;span style=&quot;color: #abb2bf&quot;&gt;;&lt;/span&gt;&lt;/div&gt;&lt;div style=&quot;color: rgb(171 , 178 , 191)&quot;&gt;&lt;span style=&quot;color: #abb2bf&quot;&gt;&lt;/span&gt;&lt;span style=&quot;color: #c678dd&quot;&gt;&amp;nbsp; &amp;nbsp; struct&lt;/span&gt;&lt;span style=&quot;color: #abb2bf&quot;&gt; &lt;/span&gt;&lt;span style=&quot;color: #e5c07b&quot;&gt;ip_vs_iphdr&lt;/span&gt;&lt;span style=&quot;color: #abb2bf&quot;&gt; &lt;/span&gt;&lt;span style=&quot;color: #e06c75&quot;&gt;iph&lt;/span&gt;&lt;span style=&quot;color: #abb2bf&quot;&gt;;&lt;/span&gt;&lt;/div&gt;&lt;div style=&quot;color: rgb(171 , 178 , 191)&quot;&gt;&lt;span style=&quot;color: #abb2bf&quot;&gt;&lt;/span&gt;&lt;span style=&quot;color: #c678dd&quot;&gt;&amp;nbsp; &amp;nbsp; struct&lt;/span&gt;&lt;span style=&quot;color: #abb2bf&quot;&gt; &lt;/span&gt;&lt;span style=&quot;color: #e5c07b&quot;&gt;ip_vs_protocol&lt;/span&gt;&lt;span style=&quot;color: #abb2bf&quot;&gt; &lt;/span&gt;&lt;span style=&quot;color: #c678dd&quot;&gt;*&lt;/span&gt;&lt;span style=&quot;color: #e06c75&quot;&gt;pp&lt;/span&gt;&lt;span style=&quot;color: #abb2bf&quot;&gt;;&lt;/span&gt;&lt;/div&gt;&lt;div style=&quot;color: rgb(171 , 178 , 191)&quot;&gt;&lt;span style=&quot;color: #abb2bf&quot;&gt;&lt;/span&gt;&lt;span style=&quot;color: #c678dd&quot;&gt;&amp;nbsp; &amp;nbsp; struct&lt;/span&gt;&lt;span style=&quot;color: #abb2bf&quot;&gt; &lt;/span&gt;&lt;span style=&quot;color: #e5c07b&quot;&gt;ip_vs_proto_data&lt;/span&gt;&lt;span style=&quot;color: #abb2bf&quot;&gt; &lt;/span&gt;&lt;span style=&quot;color: #c678dd&quot;&gt;*&lt;/span&gt;&lt;span style=&quot;color: #e06c75&quot;&gt;pd&lt;/span&gt;&lt;span style=&quot;color: #abb2bf&quot;&gt;;&lt;/span&gt;&lt;/div&gt;&lt;div style=&quot;color: rgb(171 , 178 , 191)&quot;&gt;&lt;span style=&quot;color: #abb2bf&quot;&gt;&lt;/span&gt;&lt;span style=&quot;color: #c678dd&quot;&gt;&amp;nbsp; &amp;nbsp; struct&lt;/span&gt;&lt;span style=&quot;color: #abb2bf&quot;&gt; &lt;/span&gt;&lt;span style=&quot;color: #e5c07b&quot;&gt;ip_vs_conn&lt;/span&gt;&lt;span style=&quot;color: #abb2bf&quot;&gt; &lt;/span&gt;&lt;span style=&quot;color: #c678dd&quot;&gt;*&lt;/span&gt;&lt;span style=&quot;color: #e06c75&quot;&gt;cp&lt;/span&gt;&lt;span style=&quot;color: #abb2bf&quot;&gt;;&lt;/span&gt;&lt;/div&gt;&lt;div style=&quot;color: rgb(171 , 178 , 191)&quot;&gt;&amp;nbsp; &amp;nbsp; ...&lt;/div&gt;&lt;div style=&quot;color: rgb(171 , 178 , 191)&quot;&gt;&lt;span style=&quot;color: rgb(224 , 108 , 117)&quot;&gt;&amp;nbsp; &amp;nbsp; net&lt;/span&gt; &lt;span style=&quot;color: rgb(198 , 120 , 221)&quot;&gt;=&lt;/span&gt; &lt;span style=&quot;color: rgb(97 , 175 , 239)&quot;&gt;skb_net&lt;/span&gt;(&lt;span style=&quot;color: rgb(224 , 108 , 117) ; font-style: italic&quot;&gt;skb&lt;/span&gt;);&lt;br&gt;&lt;span style=&quot;color: #abb2bf&quot;&gt;&lt;/span&gt;&lt;/div&gt;&lt;div style=&quot;color: rgb(171 , 178 , 191)&quot;&gt;&lt;span style=&quot;color: #abb2bf&quot;&gt;&lt;/span&gt;&lt;span style=&quot;color: #c678dd&quot;&gt;&amp;nbsp; &amp;nbsp; if&lt;/span&gt;&lt;span style=&quot;color: #abb2bf&quot;&gt; (&lt;/span&gt;&lt;span style=&quot;color: #56b6c2&quot;&gt;!&lt;/span&gt;&lt;span style=&quot;color: #61afef&quot;&gt;net_ipvs&lt;/span&gt;&lt;span style=&quot;color: #abb2bf&quot;&gt;(&lt;/span&gt;&lt;span style=&quot;color: #e06c75&quot;&gt;net&lt;/span&gt;&lt;span style=&quot;color: #abb2bf&quot;&gt;)-&amp;gt;&lt;/span&gt;&lt;span style=&quot;color: #e06c75&quot;&gt;enable&lt;/span&gt;&lt;span style=&quot;color: #abb2bf&quot;&gt;)&lt;/span&gt;&lt;/div&gt;&lt;div style=&quot;color: rgb(171 , 178 , 191)&quot;&gt;&lt;span style=&quot;color: #abb2bf&quot;&gt;&lt;/span&gt;&lt;span style=&quot;color: #c678dd&quot;&gt;&amp;nbsp; &amp;nbsp; &amp;nbsp; &amp;nbsp; return&lt;/span&gt;&lt;span style=&quot;color: #abb2bf&quot;&gt; &lt;/span&gt;&lt;span style=&quot;color: #61afef&quot;&gt;NF_ACCEPT&lt;/span&gt;&lt;span style=&quot;color: #abb2bf&quot;&gt;;&lt;/span&gt;&lt;/div&gt;&lt;br&gt;&lt;div style=&quot;color: rgb(171 , 178 , 191)&quot;&gt;&lt;span style=&quot;color: #abb2bf&quot;&gt;&lt;/span&gt;&lt;span style=&quot;color: #61afef&quot;&gt;&amp;nbsp; &amp;nbsp; ip_vs_fill_iph_skb&lt;/span&gt;&lt;span style=&quot;color: #abb2bf&quot;&gt;(&lt;/span&gt;&lt;span style=&quot;color: #e06c75 ; font-style: italic&quot;&gt;af&lt;/span&gt;&lt;span style=&quot;color: #abb2bf&quot;&gt;, &lt;/span&gt;&lt;span style=&quot;color: #e06c75 ; font-style: italic&quot;&gt;skb&lt;/span&gt;&lt;span style=&quot;color: #abb2bf&quot;&gt;, &lt;/span&gt;&lt;span style=&quot;color: #c678dd&quot;&gt;&amp;amp;&lt;/span&gt;&lt;span style=&quot;color: #e06c75&quot;&gt;iph&lt;/span&gt;&lt;span style=&quot;color: #abb2bf&quot;&gt;);&lt;/span&gt;&lt;/div&gt;&lt;div style=&quot;color: rgb(171 , 178 , 191)&quot;&gt;&lt;span style=&quot;color: rgb(198 , 120 , 221)&quot;&gt;&amp;nbsp; &amp;nbsp; if&lt;/span&gt; (&lt;span style=&quot;color: rgb(97 , 175 , 239)&quot;&gt;unlikely&lt;/span&gt;(&lt;span style=&quot;color: rgb(224 , 108 , 117)&quot;&gt;iph&lt;/span&gt;.&lt;span style=&quot;color: rgb(224 , 108 , 117)&quot;&gt;protocol&lt;/span&gt; &lt;span style=&quot;color: rgb(198 , 120 , 221)&quot;&gt;==&lt;/span&gt; &lt;span style=&quot;color: rgb(97 , 175 , 239)&quot;&gt;IPPROTO_ICMP&lt;/span&gt;)) {&lt;br&gt;&lt;/div&gt;&lt;div style=&quot;color: rgb(171 , 178 , 191)&quot;&gt;&lt;span style=&quot;color: #abb2bf&quot;&gt;&lt;/span&gt;&lt;span style=&quot;color: #c678dd&quot;&gt;&amp;nbsp; &amp;nbsp; &amp;nbsp; &amp;nbsp; int&lt;/span&gt;&lt;span style=&quot;color: #abb2bf&quot;&gt; &lt;/span&gt;&lt;span style=&quot;color: #e06c75&quot;&gt;related&lt;/span&gt;&lt;span style=&quot;color: #abb2bf&quot;&gt;;&lt;/span&gt;&lt;/div&gt;&lt;div style=&quot;color: rgb(171 , 178 , 191)&quot;&gt;&lt;span style=&quot;color: #abb2bf&quot;&gt;&lt;/span&gt;&lt;span style=&quot;color: #c678dd&quot;&gt;&amp;nbsp; &amp;nbsp; &amp;nbsp; &amp;nbsp; int&lt;/span&gt;&lt;span style=&quot;color: #abb2bf&quot;&gt; &lt;/span&gt;&lt;span style=&quot;color: #e06c75&quot;&gt;verdict&lt;/span&gt;&lt;span style=&quot;color: #abb2bf&quot;&gt; &lt;/span&gt;&lt;span style=&quot;color: #c678dd&quot;&gt;=&lt;/span&gt;&lt;span style=&quot;color: #abb2bf&quot;&gt; &lt;/span&gt;&lt;span style=&quot;color: #61afef&quot;&gt;ip_vs_out_icmp&lt;/span&gt;&lt;span style=&quot;color: #abb2bf&quot;&gt;(&lt;/span&gt;&lt;span style=&quot;color: #e06c75 ; font-style: italic&quot;&gt;skb&lt;/span&gt;&lt;span style=&quot;color: #abb2bf&quot;&gt;, &lt;/span&gt;&lt;span style=&quot;color: #c678dd&quot;&gt;&amp;amp;&lt;/span&gt;&lt;span style=&quot;color: #e06c75&quot;&gt;related&lt;/span&gt;&lt;span style=&quot;color: #abb2bf&quot;&gt;, &lt;/span&gt;&lt;span style=&quot;color: #e06c75 ; font-style: italic&quot;&gt;hooknum&lt;/span&gt;&lt;span style=&quot;color: #abb2bf&quot;&gt;);&lt;/span&gt;&lt;/div&gt;&lt;br&gt;&lt;div style=&quot;color: rgb(171 , 178 , 191)&quot;&gt;&lt;span style=&quot;color: #abb2bf&quot;&gt;&lt;/span&gt;&lt;span style=&quot;color: #c678dd&quot;&gt;&amp;nbsp; &amp;nbsp; &amp;nbsp; &amp;nbsp; if&lt;/span&gt;&lt;span style=&quot;color: #abb2bf&quot;&gt; (&lt;/span&gt;&lt;span style=&quot;color: #e06c75&quot;&gt;related&lt;/span&gt;&lt;span style=&quot;color: #abb2bf&quot;&gt;)&lt;/span&gt;&lt;/div&gt;&lt;div style=&quot;color: rgb(171 , 178 , 191)&quot;&gt;&lt;span style=&quot;color: #abb2bf&quot;&gt;&lt;/span&gt;&lt;span style=&quot;color: #c678dd&quot;&gt;&amp;nbsp; &amp;nbsp; &amp;nbsp; &amp;nbsp; &amp;nbsp; &amp;nbsp; return&lt;/span&gt;&lt;span style=&quot;color: #abb2bf&quot;&gt; &lt;/span&gt;&lt;span style=&quot;color: #e06c75&quot;&gt;verdict&lt;/span&gt;&lt;span style=&quot;color: #abb2bf&quot;&gt;;&lt;/span&gt;&lt;/div&gt;&lt;div style=&quot;color: rgb(171 , 178 , 191)&quot;&gt;&lt;span style=&quot;color: #abb2bf&quot;&gt;&amp;nbsp; &amp;nbsp; }&lt;/span&gt;&lt;/div&gt;&lt;br&gt;&lt;div style=&quot;color: rgb(171 , 178 , 191)&quot;&gt;&lt;span style=&quot;color: #abb2bf&quot;&gt;&lt;/span&gt;&lt;span style=&quot;color: #e06c75&quot;&gt;&amp;nbsp; &amp;nbsp; pd&lt;/span&gt;&lt;span style=&quot;color: #abb2bf&quot;&gt; &lt;/span&gt;&lt;span style=&quot;color: #c678dd&quot;&gt;=&lt;/span&gt;&lt;span style=&quot;color: #abb2bf&quot;&gt; &lt;/span&gt;&lt;span style=&quot;color: #61afef&quot;&gt;ip_vs_proto_data_get&lt;/span&gt;&lt;span style=&quot;color: #abb2bf&quot;&gt;(&lt;/span&gt;&lt;span style=&quot;color: #e06c75&quot;&gt;net&lt;/span&gt;&lt;span style=&quot;color: #abb2bf&quot;&gt;, &lt;/span&gt;&lt;span style=&quot;color: #e06c75&quot;&gt;iph&lt;/span&gt;&lt;span style=&quot;color: #abb2bf&quot;&gt;.&lt;/span&gt;&lt;span style=&quot;color: #e06c75&quot;&gt;protocol&lt;/span&gt;&lt;span style=&quot;color: #abb2bf&quot;&gt;);&lt;/span&gt;&lt;/div&gt;&lt;div style=&quot;color: rgb(171 , 178 , 191)&quot;&gt;&lt;span style=&quot;color: #abb2bf&quot;&gt;&lt;/span&gt;&lt;span style=&quot;color: #c678dd&quot;&gt;&amp;nbsp; &amp;nbsp; if&lt;/span&gt;&lt;span style=&quot;color: #abb2bf&quot;&gt; (&lt;/span&gt;&lt;span style=&quot;color: #61afef&quot;&gt;unlikely&lt;/span&gt;&lt;span style=&quot;color: #abb2bf&quot;&gt;(&lt;/span&gt;&lt;span style=&quot;color: #56b6c2&quot;&gt;!&lt;/span&gt;&lt;span style=&quot;color: #e06c75&quot;&gt;pd&lt;/span&gt;&lt;span style=&quot;color: #abb2bf&quot;&gt;))&lt;/span&gt;&lt;/div&gt;&lt;div style=&quot;color: rgb(171 , 178 , 191)&quot;&gt;&lt;span style=&quot;color: #abb2bf&quot;&gt;&lt;/span&gt;&lt;span style=&quot;color: #c678dd&quot;&gt;&amp;nbsp; &amp;nbsp; &amp;nbsp; &amp;nbsp; return&lt;/span&gt;&lt;span style=&quot;color: #abb2bf&quot;&gt; &lt;/span&gt;&lt;span style=&quot;color: #61afef&quot;&gt;NF_ACCEPT&lt;/span&gt;&lt;span style=&quot;color: #abb2bf&quot;&gt;;&lt;/span&gt;&lt;/div&gt;&lt;div style=&quot;color: rgb(171 , 178 , 191)&quot;&gt;&lt;span style=&quot;color: #abb2bf&quot;&gt;&lt;/span&gt;&lt;span style=&quot;color: #e06c75&quot;&gt;&amp;nbsp; &amp;nbsp; pp&lt;/span&gt;&lt;span style=&quot;color: #abb2bf&quot;&gt; &lt;/span&gt;&lt;span style=&quot;color: #c678dd&quot;&gt;=&lt;/span&gt;&lt;span style=&quot;color: #abb2bf&quot;&gt; &lt;/span&gt;&lt;span style=&quot;color: #e06c75&quot;&gt;pd&lt;/span&gt;&lt;span style=&quot;color: #abb2bf&quot;&gt;-&amp;gt;&lt;/span&gt;&lt;span style=&quot;color: #e06c75&quot;&gt;pp&lt;/span&gt;&lt;span style=&quot;color: #abb2bf&quot;&gt;;&lt;/span&gt;&lt;/div&gt;&lt;br&gt;&lt;div style=&quot;color: rgb(171 , 178 , 191)&quot;&gt;&lt;span style=&quot;color: #abb2bf&quot;&gt;&lt;/span&gt;&lt;span style=&quot;color: #7f848e ; font-style: italic&quot;&gt;&amp;nbsp; &amp;nbsp; /* reassemble IP fragments */&lt;/span&gt;&lt;/div&gt;&lt;div style=&quot;color: rgb(171 , 178 , 191)&quot;&gt;&lt;span style=&quot;color: rgb(198 , 120 , 221)&quot;&gt;&amp;nbsp; &amp;nbsp; if&lt;/span&gt; (&lt;span style=&quot;color: rgb(97 , 175 , 239)&quot;&gt;unlikely&lt;/span&gt;(&lt;span style=&quot;color: rgb(97 , 175 , 239)&quot;&gt;ip_is_fragment&lt;/span&gt;(&lt;span style=&quot;color: rgb(97 , 175 , 239)&quot;&gt;ip_hdr&lt;/span&gt;(&lt;span style=&quot;color: rgb(224 , 108 , 117) ; font-style: italic&quot;&gt;skb&lt;/span&gt;)) &lt;span style=&quot;color: rgb(86 , 182 , 194)&quot;&gt;&amp;amp;&amp;amp;&lt;/span&gt; &lt;span style=&quot;color: rgb(86 , 182 , 194)&quot;&gt;!&lt;/span&gt;&lt;span style=&quot;color: rgb(224 , 108 , 117)&quot;&gt;pp&lt;/span&gt;-&amp;gt;&lt;span style=&quot;color: rgb(224 , 108 , 117)&quot;&gt;dont_defrag&lt;/span&gt;)) {&lt;br&gt;&lt;/div&gt;&lt;div style=&quot;color: rgb(171 , 178 , 191)&quot;&gt;&lt;span style=&quot;color: #abb2bf&quot;&gt;&lt;/span&gt;&lt;span style=&quot;color: #c678dd&quot;&gt;&amp;nbsp; &amp;nbsp; &amp;nbsp; &amp;nbsp; if&lt;/span&gt;&lt;span style=&quot;color: #abb2bf&quot;&gt; (&lt;/span&gt;&lt;span style=&quot;color: #61afef&quot;&gt;ip_vs_gather_frags&lt;/span&gt;&lt;span style=&quot;color: #abb2bf&quot;&gt;(&lt;/span&gt;&lt;span style=&quot;color: #e06c75 ; font-style: italic&quot;&gt;skb&lt;/span&gt;&lt;span style=&quot;color: #abb2bf&quot;&gt;,&amp;nbsp;&lt;/span&gt;&lt;span style=&quot;color: rgb(97 , 175 , 239)&quot;&gt;ip_vs_defrag_user&lt;/span&gt;(&lt;span style=&quot;color: rgb(224 , 108 , 117) ; font-style: italic&quot;&gt;hooknum&lt;/span&gt;)))&lt;/div&gt;&lt;div style=&quot;color: rgb(171 , 178 , 191)&quot;&gt;&lt;span style=&quot;color: #abb2bf&quot;&gt;&lt;/span&gt;&lt;span style=&quot;color: #c678dd&quot;&gt;&amp;nbsp; &amp;nbsp; &amp;nbsp; &amp;nbsp; &amp;nbsp; &amp;nbsp; return&lt;/span&gt;&lt;span style=&quot;color: #abb2bf&quot;&gt; &lt;/span&gt;&lt;span style=&quot;color: #61afef&quot;&gt;NF_STOLEN&lt;/span&gt;&lt;span style=&quot;color: #abb2bf&quot;&gt;;&lt;/span&gt;&lt;/div&gt;&lt;div style=&quot;color: rgb(171 , 178 , 191)&quot;&gt;&lt;span style=&quot;color: #abb2bf&quot;&gt;&lt;/span&gt;&lt;span style=&quot;color: #61afef&quot;&gt;&amp;nbsp; &amp;nbsp; &amp;nbsp; &amp;nbsp; ip_vs_fill_iph_skb&lt;/span&gt;&lt;span style=&quot;color: #abb2bf&quot;&gt;(&lt;/span&gt;&lt;span style=&quot;color: #61afef&quot;&gt;AF_INET&lt;/span&gt;&lt;span style=&quot;color: #abb2bf&quot;&gt;, &lt;/span&gt;&lt;span style=&quot;color: #e06c75 ; font-style: italic&quot;&gt;skb&lt;/span&gt;&lt;span style=&quot;color: #abb2bf&quot;&gt;, &lt;/span&gt;&lt;span style=&quot;color: #c678dd&quot;&gt;&amp;amp;&lt;/span&gt;&lt;span style=&quot;color: #e06c75&quot;&gt;iph&lt;/span&gt;&lt;span style=&quot;color: #abb2bf&quot;&gt;);&lt;/span&gt;&lt;/div&gt;&lt;div style=&quot;color: rgb(171 , 178 , 191)&quot;&gt;&lt;span style=&quot;color: #abb2bf&quot;&gt;&amp;nbsp; &amp;nbsp; }&lt;/span&gt;&lt;/div&gt;&lt;br&gt;&lt;div style=&quot;color: rgb(171 , 178 , 191)&quot;&gt;&lt;span style=&quot;color: #abb2bf&quot;&gt;&lt;/span&gt;&lt;span style=&quot;color: #7f848e ; font-style: italic&quot;&gt;&amp;nbsp; &amp;nbsp; /*&lt;/span&gt;&lt;/div&gt;&lt;div style=&quot;color: rgb(171 , 178 , 191)&quot;&gt;&lt;span style=&quot;color: #7f848e ; font-style: italic&quot;&gt;&amp;nbsp; &amp;nbsp; &amp;nbsp;* Check if the packet belongs to an existing entry&lt;/span&gt;&lt;/div&gt;&lt;div style=&quot;color: rgb(171 , 178 , 191)&quot;&gt;&lt;span style=&quot;color: #7f848e ; font-style: italic&quot;&gt;&amp;nbsp; &amp;nbsp; &amp;nbsp;*/&lt;/span&gt;&lt;/div&gt;&lt;div style=&quot;color: rgb(171 , 178 , 191)&quot;&gt;&lt;span style=&quot;color: #abb2bf&quot;&gt;&lt;/span&gt;&lt;span style=&quot;color: #e06c75&quot;&gt;&amp;nbsp; &amp;nbsp; cp&lt;/span&gt;&lt;span style=&quot;color: #abb2bf&quot;&gt; &lt;/span&gt;&lt;span style=&quot;color: #c678dd&quot;&gt;=&lt;/span&gt;&lt;span style=&quot;color: #abb2bf&quot;&gt; &lt;/span&gt;&lt;span style=&quot;color: #e06c75&quot;&gt;pp&lt;/span&gt;&lt;span style=&quot;color: #abb2bf&quot;&gt;-&amp;gt;&lt;/span&gt;&lt;span style=&quot;color: #e06c75&quot;&gt;conn_out_get&lt;/span&gt;&lt;span style=&quot;color: #abb2bf&quot;&gt;(&lt;/span&gt;&lt;span style=&quot;color: #e06c75 ; font-style: italic&quot;&gt;af&lt;/span&gt;&lt;span style=&quot;color: #abb2bf&quot;&gt;, &lt;/span&gt;&lt;span style=&quot;color: #e06c75 ; font-style: italic&quot;&gt;skb&lt;/span&gt;&lt;span style=&quot;color: #abb2bf&quot;&gt;, &lt;/span&gt;&lt;span style=&quot;color: #c678dd&quot;&gt;&amp;amp;&lt;/span&gt;&lt;span style=&quot;color: #e06c75&quot;&gt;iph&lt;/span&gt;&lt;span style=&quot;color: #abb2bf&quot;&gt;, &lt;/span&gt;&lt;span style=&quot;color: #d19a66&quot;&gt;0&lt;/span&gt;&lt;span style=&quot;color: #abb2bf&quot;&gt;);&lt;/span&gt;&lt;/div&gt;&lt;br&gt;&lt;div style=&quot;color: rgb(171 , 178 , 191)&quot;&gt;&lt;span style=&quot;color: #abb2bf&quot;&gt;&lt;/span&gt;&lt;span style=&quot;color: #c678dd&quot;&gt;&amp;nbsp; &amp;nbsp; if&lt;/span&gt;&lt;span style=&quot;color: #abb2bf&quot;&gt; (&lt;/span&gt;&lt;span style=&quot;color: #61afef&quot;&gt;likely&lt;/span&gt;&lt;span style=&quot;color: #abb2bf&quot;&gt;(&lt;/span&gt;&lt;span style=&quot;color: #e06c75&quot;&gt;cp&lt;/span&gt;&lt;span style=&quot;color: #abb2bf&quot;&gt;))&lt;/span&gt;&lt;/div&gt;&lt;div style=&quot;color: rgb(171 , 178 , 191)&quot;&gt;&lt;span style=&quot;color: #abb2bf&quot;&gt;&lt;/span&gt;&lt;span style=&quot;color: #c678dd&quot;&gt;&amp;nbsp; &amp;nbsp; &amp;nbsp; &amp;nbsp; return&lt;/span&gt;&lt;span style=&quot;color: #abb2bf&quot;&gt; &lt;/span&gt;&lt;span style=&quot;color: #61afef&quot;&gt;handle_response&lt;/span&gt;&lt;span style=&quot;color: #abb2bf&quot;&gt;(&lt;/span&gt;&lt;span style=&quot;color: #e06c75 ; font-style: italic&quot;&gt;af&lt;/span&gt;&lt;span style=&quot;color: #abb2bf&quot;&gt;, &lt;/span&gt;&lt;span style=&quot;color: #e06c75 ; font-style: italic&quot;&gt;skb&lt;/span&gt;&lt;span style=&quot;color: #abb2bf&quot;&gt;, &lt;/span&gt;&lt;span style=&quot;color: #e06c75&quot;&gt;pd&lt;/span&gt;&lt;span style=&quot;color: #abb2bf&quot;&gt;, &lt;/span&gt;&lt;span style=&quot;color: #e06c75&quot;&gt;cp&lt;/span&gt;&lt;span style=&quot;color: #abb2bf&quot;&gt;, &lt;/span&gt;&lt;span style=&quot;color: #c678dd&quot;&gt;&amp;amp;&lt;/span&gt;&lt;span style=&quot;color: #e06c75&quot;&gt;iph&lt;/span&gt;&lt;span style=&quot;color: #abb2bf&quot;&gt;, &lt;/span&gt;&lt;span style=&quot;color: #e06c75 ; font-style: italic&quot;&gt;hooknum&lt;/span&gt;&lt;span style=&quot;color: #abb2bf&quot;&gt;);&lt;/span&gt;&lt;/div&gt;&lt;br&gt;&lt;div style=&quot;color: rgb(171 , 178 , 191)&quot;&gt;&lt;span style=&quot;color: #abb2bf&quot;&gt;&lt;/span&gt;&lt;span style=&quot;color: #7f848e ; font-style: italic&quot;&gt;&amp;nbsp; &amp;nbsp;/* Check for real-server-started requests */&lt;/span&gt;&lt;/div&gt;&lt;div style=&quot;color: rgb(171 , 178 , 191)&quot;&gt;&lt;span style=&quot;color: #abb2bf&quot;&gt;&lt;/span&gt;&lt;span style=&quot;color: #c678dd&quot;&gt;&amp;nbsp; &amp;nbsp;if&lt;/span&gt;&lt;span style=&quot;color: #abb2bf&quot;&gt; (&lt;/span&gt;&lt;span style=&quot;color: #61afef&quot;&gt;atomic_read&lt;/span&gt;&lt;span style=&quot;color: #abb2bf&quot;&gt;(&lt;/span&gt;&lt;span style=&quot;color: #c678dd&quot;&gt;&amp;amp;&lt;/span&gt;&lt;span style=&quot;color: #61afef&quot;&gt;net_ipvs&lt;/span&gt;&lt;span style=&quot;color: #abb2bf&quot;&gt;(&lt;/span&gt;&lt;span style=&quot;color: #e06c75&quot;&gt;net&lt;/span&gt;&lt;span style=&quot;color: #abb2bf&quot;&gt;)-&amp;gt;&lt;/span&gt;&lt;span style=&quot;color: #e06c75&quot;&gt;conn_out_counter&lt;/span&gt;&lt;span style=&quot;color: #abb2bf&quot;&gt;)) {&lt;/span&gt;&lt;/div&gt;&lt;div style=&quot;color: rgb(171 , 178 , 191)&quot;&gt;&lt;span style=&quot;color: #abb2bf&quot;&gt;&lt;/span&gt;&lt;span style=&quot;color: #7f848e ; font-style: italic&quot;&gt;&amp;nbsp; &amp;nbsp;/* Currently only for UDP:&lt;/span&gt;&lt;/div&gt;&lt;div style=&quot;color: rgb(171 , 178 , 191)&quot;&gt;&lt;span style=&quot;color: #7f848e ; font-style: italic&quot;&gt;&amp;nbsp; &amp;nbsp; * connection oriented protocols typically use&lt;/span&gt;&lt;/div&gt;&lt;div style=&quot;color: rgb(171 , 178 , 191)&quot;&gt;&lt;span style=&quot;color: #7f848e ; font-style: italic&quot;&gt;&amp;nbsp; &amp;nbsp; * ephemeral ports for outgoing connections, so&lt;/span&gt;&lt;/div&gt;&lt;div style=&quot;color: rgb(171 , 178 , 191)&quot;&gt;&lt;span style=&quot;color: #7f848e ; font-style: italic&quot;&gt;&amp;nbsp; &amp;nbsp; * related incoming responses would not match any VS&lt;/span&gt;&lt;/div&gt;&lt;div style=&quot;color: rgb(171 , 178 , 191)&quot;&gt;&lt;span style=&quot;color: #7f848e ; font-style: italic&quot;&gt;&amp;nbsp; &amp;nbsp; */&lt;/span&gt;&lt;/div&gt;&lt;div style=&quot;color: rgb(171 , 178 , 191)&quot;&gt;&lt;span style=&quot;color: #abb2bf&quot;&gt;&lt;/span&gt;&lt;span style=&quot;color: #c678dd&quot;&gt;&amp;nbsp; &amp;nbsp;if&lt;/span&gt;&lt;span style=&quot;color: #abb2bf&quot;&gt; (&lt;/span&gt;&lt;span style=&quot;color: #e06c75&quot;&gt;pp&lt;/span&gt;&lt;span style=&quot;color: #abb2bf&quot;&gt;-&amp;gt;&lt;/span&gt;&lt;span style=&quot;color: #e06c75&quot;&gt;protocol&lt;/span&gt;&lt;span style=&quot;color: #abb2bf&quot;&gt; &lt;/span&gt;&lt;span style=&quot;color: #c678dd&quot;&gt;==&lt;/span&gt;&lt;span style=&quot;color: #abb2bf&quot;&gt; &lt;/span&gt;&lt;span style=&quot;color: #61afef&quot;&gt;IPPROTO_UDP&lt;/span&gt;&lt;span style=&quot;color: #abb2bf&quot;&gt;) {&lt;/span&gt;&lt;/div&gt;&lt;div style=&quot;color: rgb(171 , 178 , 191)&quot;&gt;&lt;span style=&quot;color: #abb2bf&quot;&gt;&lt;/span&gt;&lt;span style=&quot;color: #e06c75&quot;&gt;&amp;nbsp; &amp;nbsp; &amp;nbsp; &amp;nbsp;cp&lt;/span&gt;&lt;span style=&quot;color: #abb2bf&quot;&gt; &lt;/span&gt;&lt;span style=&quot;color: #c678dd&quot;&gt;=&lt;/span&gt;&lt;span style=&quot;color: #abb2bf&quot;&gt; &lt;/span&gt;&lt;span style=&quot;color: #61afef&quot;&gt;__ip_vs_rs_conn_out&lt;/span&gt;&lt;span style=&quot;color: #abb2bf&quot;&gt;(&lt;/span&gt;&lt;span style=&quot;color: #e06c75 ; font-style: italic&quot;&gt;hooknum&lt;/span&gt;&lt;span style=&quot;color: #abb2bf&quot;&gt;, &lt;/span&gt;&lt;span style=&quot;color: #61afef&quot;&gt;net_ipvs&lt;/span&gt;&lt;span style=&quot;color: #abb2bf&quot;&gt;(&lt;/span&gt;&lt;span style=&quot;color: #e06c75&quot;&gt;net&lt;/span&gt;&lt;span style=&quot;color: #abb2bf&quot;&gt;), &lt;/span&gt;&lt;span style=&quot;color: #e06c75 ; font-style: italic&quot;&gt;af&lt;/span&gt;&lt;span style=&quot;color: #abb2bf&quot;&gt;,&amp;nbsp;&lt;/span&gt;&lt;span style=&quot;color: rgb(224 , 108 , 117) ; font-style: italic&quot;&gt;skb&lt;/span&gt;, &lt;span style=&quot;color: rgb(198 , 120 , 221)&quot;&gt;&amp;amp;&lt;/span&gt;&lt;span style=&quot;color: rgb(224 , 108 , 117)&quot;&gt;iph&lt;/span&gt;);&lt;/div&gt;&lt;div style=&quot;color: rgb(171 , 178 , 191)&quot;&gt;&lt;span style=&quot;color: #abb2bf&quot;&gt;&lt;/span&gt;&lt;span style=&quot;color: #c678dd&quot;&gt;&amp;nbsp; &amp;nbsp; &amp;nbsp; &amp;nbsp;if&lt;/span&gt;&lt;span style=&quot;color: #abb2bf&quot;&gt; (&lt;/span&gt;&lt;span style=&quot;color: #61afef&quot;&gt;likely&lt;/span&gt;&lt;span style=&quot;color: #abb2bf&quot;&gt;(&lt;/span&gt;&lt;span style=&quot;color: #e06c75&quot;&gt;cp&lt;/span&gt;&lt;span style=&quot;color: #abb2bf&quot;&gt;))&lt;/span&gt;&lt;/div&gt;&lt;div style=&quot;color: rgb(171 , 178 , 191)&quot;&gt;&lt;span style=&quot;color: #abb2bf&quot;&gt;&lt;/span&gt;&lt;span style=&quot;color: #c678dd&quot;&gt;&amp;nbsp; &amp;nbsp; &amp;nbsp; &amp;nbsp; &amp;nbsp; &amp;nbsp;return&lt;/span&gt;&lt;span style=&quot;color: #abb2bf&quot;&gt; &lt;/span&gt;&lt;span style=&quot;color: #61afef&quot;&gt;handle_response&lt;/span&gt;&lt;span style=&quot;color: #abb2bf&quot;&gt;(&lt;/span&gt;&lt;span style=&quot;color: #e06c75 ; font-style: italic&quot;&gt;af&lt;/span&gt;&lt;span style=&quot;color: #abb2bf&quot;&gt;, &lt;/span&gt;&lt;span style=&quot;color: #e06c75 ; font-style: italic&quot;&gt;skb&lt;/span&gt;&lt;span style=&quot;color: #abb2bf&quot;&gt;, &lt;/span&gt;&lt;span style=&quot;color: #e06c75&quot;&gt;pd&lt;/span&gt;&lt;span style=&quot;color: #abb2bf&quot;&gt;, &lt;/span&gt;&lt;span style=&quot;color: #e06c75&quot;&gt;cp&lt;/span&gt;&lt;span style=&quot;color: #abb2bf&quot;&gt;, &lt;/span&gt;&lt;span style=&quot;color: #c678dd&quot;&gt;&amp;amp;&lt;/span&gt;&lt;span style=&quot;color: #e06c75&quot;&gt;iph&lt;/span&gt;&lt;span style=&quot;color: #abb2bf&quot;&gt;,&amp;nbsp;&lt;/span&gt;&lt;span style=&quot;color: rgb(224 , 108 , 117) ; font-style: italic&quot;&gt;hooknum&lt;/span&gt;);&lt;/div&gt;&lt;div style=&quot;color: rgb(171 , 178 , 191)&quot;&gt;&lt;span style=&quot;color: #abb2bf&quot;&gt;&amp;nbsp; &amp;nbsp; &amp;nbsp; &amp;nbsp;}&lt;/span&gt;&lt;/div&gt;&lt;div style=&quot;color: rgb(171 , 178 , 191)&quot;&gt;&lt;span style=&quot;color: #abb2bf&quot;&gt;&amp;nbsp; &amp;nbsp;}&lt;/span&gt;&lt;/div&gt;&lt;br&gt;&lt;div style=&quot;color: rgb(171 , 178 , 191)&quot;&gt;&lt;span style=&quot;color: #abb2bf&quot;&gt;&lt;/span&gt;&lt;span style=&quot;color: #c678dd&quot;&gt;&amp;nbsp; &amp;nbsp;if&lt;/span&gt;&lt;span style=&quot;color: #abb2bf&quot;&gt; (&lt;/span&gt;&lt;span style=&quot;color: #61afef&quot;&gt;sysctl_nat_icmp_send&lt;/span&gt;&lt;span style=&quot;color: #abb2bf&quot;&gt;(&lt;/span&gt;&lt;span style=&quot;color: #e06c75&quot;&gt;net&lt;/span&gt;&lt;span style=&quot;color: #abb2bf&quot;&gt;) &lt;/span&gt;&lt;span style=&quot;color: #56b6c2&quot;&gt;&amp;amp;&amp;amp;&amp;nbsp;&lt;/span&gt;(&lt;span style=&quot;color: rgb(224 , 108 , 117)&quot;&gt;pp&lt;/span&gt;-&amp;gt;&lt;span style=&quot;color: rgb(224 , 108 , 117)&quot;&gt;protocol&lt;/span&gt; &lt;span style=&quot;color: rgb(198 , 120 , 221)&quot;&gt;==&lt;/span&gt; &lt;span style=&quot;color: rgb(97 , 175 , 239)&quot;&gt;IPPROTO_TCP&lt;/span&gt; &lt;span style=&quot;color: rgb(86 , 182 , 194)&quot;&gt;||&lt;/span&gt;&lt;/div&gt;&lt;div style=&quot;color: rgb(171 , 178 , 191)&quot;&gt;&lt;span style=&quot;color: #abb2bf&quot;&gt;&lt;/span&gt;&lt;span style=&quot;color: #e06c75&quot;&gt;&amp;nbsp; &amp;nbsp; &amp;nbsp; &amp;nbsp;pp&lt;/span&gt;&lt;span style=&quot;color: #abb2bf&quot;&gt;-&amp;gt;&lt;/span&gt;&lt;span style=&quot;color: #e06c75&quot;&gt;protocol&lt;/span&gt;&lt;span style=&quot;color: #abb2bf&quot;&gt; &lt;/span&gt;&lt;span style=&quot;color: #c678dd&quot;&gt;==&lt;/span&gt;&lt;span style=&quot;color: #abb2bf&quot;&gt; &lt;/span&gt;&lt;span style=&quot;color: #61afef&quot;&gt;IPPROTO_UDP&lt;/span&gt;&lt;span style=&quot;color: #abb2bf&quot;&gt; &lt;/span&gt;&lt;span style=&quot;color: #56b6c2&quot;&gt;||&amp;nbsp;&lt;/span&gt;&lt;span style=&quot;color: rgb(224 , 108 , 117)&quot;&gt;pp&lt;/span&gt;-&amp;gt;&lt;span style=&quot;color: rgb(224 , 108 , 117)&quot;&gt;protocol&lt;/span&gt; &lt;span style=&quot;color: rgb(198 , 120 , 221)&quot;&gt;==&lt;/span&gt; &lt;span style=&quot;color: rgb(97 , 175 , 239)&quot;&gt;IPPROTO_SCTP&lt;/span&gt;)) {&lt;/div&gt;&lt;div style=&quot;color: rgb(171 , 178 , 191)&quot;&gt;&lt;span style=&quot;color: #abb2bf&quot;&gt;&lt;/span&gt;&lt;span style=&quot;color: #e5c07b&quot;&gt;&amp;nbsp; &amp;nbsp; &amp;nbsp; &amp;nbsp;__be16&lt;/span&gt;&lt;span style=&quot;color: #abb2bf&quot;&gt; &lt;/span&gt;&lt;span style=&quot;color: #e06c75&quot;&gt;_ports&lt;/span&gt;&lt;span style=&quot;color: #abb2bf&quot;&gt;[&lt;/span&gt;&lt;span style=&quot;color: #d19a66&quot;&gt;2&lt;/span&gt;&lt;span style=&quot;color: #abb2bf&quot;&gt;], &lt;/span&gt;&lt;span style=&quot;color: #c678dd&quot;&gt;*&lt;/span&gt;&lt;span style=&quot;color: #e06c75&quot;&gt;pptr&lt;/span&gt;&lt;span style=&quot;color: #abb2bf&quot;&gt;;&lt;/span&gt;&lt;/div&gt;&lt;br&gt;&lt;div style=&quot;color: rgb(171 , 178 , 191)&quot;&gt;&lt;span style=&quot;color: #abb2bf&quot;&gt;&lt;/span&gt;&lt;span style=&quot;color: #e06c75&quot;&gt;&amp;nbsp; &amp;nbsp; &amp;nbsp; &amp;nbsp;pptr&lt;/span&gt;&lt;span style=&quot;color: #abb2bf&quot;&gt; &lt;/span&gt;&lt;span style=&quot;color: #c678dd&quot;&gt;=&lt;/span&gt;&lt;span style=&quot;color: #abb2bf&quot;&gt; &lt;/span&gt;&lt;span style=&quot;color: #61afef&quot;&gt;frag_safe_skb_hp&lt;/span&gt;&lt;span style=&quot;color: #abb2bf&quot;&gt;(&lt;/span&gt;&lt;span style=&quot;color: #e06c75 ; font-style: italic&quot;&gt;skb&lt;/span&gt;&lt;span style=&quot;color: #abb2bf&quot;&gt;, &lt;/span&gt;&lt;span style=&quot;color: #e06c75&quot;&gt;iph&lt;/span&gt;&lt;span style=&quot;color: #abb2bf&quot;&gt;.&lt;/span&gt;&lt;span style=&quot;color: #e06c75&quot;&gt;len&lt;/span&gt;&lt;span style=&quot;color: #abb2bf&quot;&gt;,&amp;nbsp;&lt;/span&gt;&lt;span style=&quot;color: rgb(198 , 120 , 221)&quot;&gt;sizeof&lt;/span&gt;(&lt;span style=&quot;color: rgb(224 , 108 , 117)&quot;&gt;_ports&lt;/span&gt;), &lt;span style=&quot;color: rgb(224 , 108 , 117)&quot;&gt;_ports&lt;/span&gt;, &lt;span style=&quot;color: rgb(198 , 120 , 221)&quot;&gt;&amp;amp;&lt;/span&gt;&lt;span style=&quot;color: rgb(224 , 108 , 117)&quot;&gt;iph&lt;/span&gt;);&lt;/div&gt;&lt;div style=&quot;color: rgb(171 , 178 , 191)&quot;&gt;&lt;span style=&quot;color: #abb2bf&quot;&gt;&lt;/span&gt;&lt;span style=&quot;color: #c678dd&quot;&gt;&amp;nbsp; &amp;nbsp; &amp;nbsp; &amp;nbsp;if&lt;/span&gt;&lt;span style=&quot;color: #abb2bf&quot;&gt; (&lt;/span&gt;&lt;span style=&quot;color: #e06c75&quot;&gt;pptr&lt;/span&gt;&lt;span style=&quot;color: #abb2bf&quot;&gt; &lt;/span&gt;&lt;span style=&quot;color: #c678dd&quot;&gt;==&lt;/span&gt;&lt;span style=&quot;color: #abb2bf&quot;&gt; &lt;/span&gt;&lt;span style=&quot;color: #61afef&quot;&gt;NULL&lt;/span&gt;&lt;span style=&quot;color: #abb2bf&quot;&gt;)&lt;/span&gt;&lt;/div&gt;&lt;div style=&quot;color: rgb(171 , 178 , 191)&quot;&gt;&lt;span style=&quot;color: #abb2bf&quot;&gt;&lt;/span&gt;&lt;span style=&quot;color: #c678dd&quot;&gt;&amp;nbsp; &amp;nbsp; &amp;nbsp; &amp;nbsp; &amp;nbsp; &amp;nbsp;return&lt;/span&gt;&lt;span style=&quot;color: #abb2bf&quot;&gt; &lt;/span&gt;&lt;span style=&quot;color: #61afef&quot;&gt;NF_ACCEPT&lt;/span&gt;&lt;span style=&quot;color: #abb2bf&quot;&gt;;   &lt;/span&gt;&lt;span style=&quot;color: #7f848e ; font-style: italic&quot;&gt;/* Not for me */&lt;/span&gt;&lt;/div&gt;&lt;div style=&quot;color: rgb(171 , 178 , 191)&quot;&gt;&lt;span style=&quot;color: #abb2bf&quot;&gt;&lt;/span&gt;&lt;span style=&quot;color: #c678dd&quot;&gt;&amp;nbsp; &amp;nbsp; &amp;nbsp; &amp;nbsp;if&lt;/span&gt;&lt;span style=&quot;color: #abb2bf&quot;&gt; (&lt;/span&gt;&lt;span style=&quot;color: #61afef&quot;&gt;ip_vs_has_real_service&lt;/span&gt;&lt;span style=&quot;color: #abb2bf&quot;&gt;(&lt;/span&gt;&lt;span style=&quot;color: #e06c75&quot;&gt;net&lt;/span&gt;&lt;span style=&quot;color: #abb2bf&quot;&gt;, &lt;/span&gt;&lt;span style=&quot;color: #e06c75 ; font-style: italic&quot;&gt;af&lt;/span&gt;&lt;span style=&quot;color: #abb2bf&quot;&gt;, &lt;/span&gt;&lt;span style=&quot;color: #e06c75&quot;&gt;iph&lt;/span&gt;&lt;span style=&quot;color: #abb2bf&quot;&gt;.&lt;/span&gt;&lt;span style=&quot;color: #e06c75&quot;&gt;protocol&lt;/span&gt;&lt;span style=&quot;color: #abb2bf&quot;&gt;, &lt;/span&gt;&lt;span style=&quot;color: #c678dd&quot;&gt;&amp;amp;&lt;/span&gt;&lt;span style=&quot;color: #e06c75&quot;&gt;iph&lt;/span&gt;&lt;span style=&quot;color: #abb2bf&quot;&gt;.&lt;/span&gt;&lt;span style=&quot;color: #e06c75&quot;&gt;saddr&lt;/span&gt;&lt;span style=&quot;color: #abb2bf&quot;&gt;,&amp;nbsp;&lt;/span&gt;&lt;span style=&quot;color: rgb(224 , 108 , 117)&quot;&gt;pptr&lt;/span&gt;[&lt;span style=&quot;color: rgb(209 , 154 , 102)&quot;&gt;0&lt;/span&gt;])) {&lt;/div&gt;&lt;div style=&quot;color: rgb(171 , 178 , 191)&quot;&gt;&lt;span style=&quot;color: #abb2bf&quot;&gt;&lt;/span&gt;&lt;span style=&quot;color: #c678dd&quot;&gt;&amp;nbsp; &amp;nbsp; &amp;nbsp; &amp;nbsp; &amp;nbsp; &amp;nbsp;if&lt;/span&gt;&lt;span style=&quot;color: #abb2bf&quot;&gt; ((&lt;/span&gt;&lt;span style=&quot;color: #e06c75&quot;&gt;iph&lt;/span&gt;&lt;span style=&quot;color: #abb2bf&quot;&gt;.&lt;/span&gt;&lt;span style=&quot;color: #e06c75&quot;&gt;protocol&lt;/span&gt;&lt;span style=&quot;color: #abb2bf&quot;&gt; &lt;/span&gt;&lt;span style=&quot;color: #c678dd&quot;&gt;!=&lt;/span&gt;&lt;span style=&quot;color: #abb2bf&quot;&gt; &lt;/span&gt;&lt;span style=&quot;color: #61afef&quot;&gt;IPPROTO_TCP&lt;/span&gt;&lt;span style=&quot;color: #abb2bf&quot;&gt; &lt;/span&gt;&lt;span style=&quot;color: #56b6c2&quot;&gt;&amp;amp;&amp;amp;&amp;nbsp;&lt;/span&gt;&lt;span style=&quot;color: rgb(224 , 108 , 117)&quot;&gt;iph&lt;/span&gt;.&lt;span style=&quot;color: rgb(224 , 108 , 117)&quot;&gt;protocol&lt;/span&gt; &lt;span style=&quot;color: rgb(198 , 120 , 221)&quot;&gt;!=&lt;/span&gt; &lt;span style=&quot;color: rgb(97 , 175 , 239)&quot;&gt;IPPROTO_SCTP&lt;/span&gt;)&lt;/div&gt;&lt;div style=&quot;color: rgb(171 , 178 , 191)&quot;&gt;&lt;span style=&quot;color: #abb2bf&quot;&gt;&lt;/span&gt;&lt;span style=&quot;color: #56b6c2&quot;&gt;&amp;nbsp; &amp;nbsp; &amp;nbsp; &amp;nbsp; &amp;nbsp; &amp;nbsp; &amp;nbsp; ||&lt;/span&gt;&lt;span style=&quot;color: #abb2bf&quot;&gt; ((&lt;/span&gt;&lt;span style=&quot;color: #e06c75&quot;&gt;iph&lt;/span&gt;&lt;span style=&quot;color: #abb2bf&quot;&gt;.&lt;/span&gt;&lt;span style=&quot;color: #e06c75&quot;&gt;protocol&lt;/span&gt;&lt;span style=&quot;color: #abb2bf&quot;&gt; &lt;/span&gt;&lt;span style=&quot;color: #c678dd&quot;&gt;==&lt;/span&gt;&lt;span style=&quot;color: #abb2bf&quot;&gt; &lt;/span&gt;&lt;span style=&quot;color: #61afef&quot;&gt;IPPROTO_TCP&lt;/span&gt;&lt;/div&gt;&lt;div style=&quot;color: rgb(171 , 178 , 191)&quot;&gt;&lt;span style=&quot;color: #abb2bf&quot;&gt;&lt;/span&gt;&lt;span style=&quot;color: #56b6c2&quot;&gt;&amp;nbsp; &amp;nbsp; &amp;nbsp; &amp;nbsp; &amp;nbsp; &amp;nbsp; &amp;nbsp; &amp;amp;&amp;amp;&lt;/span&gt;&lt;span style=&quot;color: #abb2bf&quot;&gt; &lt;/span&gt;&lt;span style=&quot;color: #56b6c2&quot;&gt;!&lt;/span&gt;&lt;span style=&quot;color: #61afef&quot;&gt;is_tcp_reset&lt;/span&gt;&lt;span style=&quot;color: #abb2bf&quot;&gt;(&lt;/span&gt;&lt;span style=&quot;color: #e06c75 ; font-style: italic&quot;&gt;skb&lt;/span&gt;&lt;span style=&quot;color: #abb2bf&quot;&gt;, &lt;/span&gt;&lt;span style=&quot;color: #e06c75&quot;&gt;iph&lt;/span&gt;&lt;span style=&quot;color: #abb2bf&quot;&gt;.&lt;/span&gt;&lt;span style=&quot;color: #e06c75&quot;&gt;len&lt;/span&gt;&lt;span style=&quot;color: #abb2bf&quot;&gt;))&lt;/span&gt;&lt;/div&gt;&lt;div style=&quot;color: rgb(171 , 178 , 191)&quot;&gt;&lt;span style=&quot;color: #abb2bf&quot;&gt;&lt;/span&gt;&lt;span style=&quot;color: #56b6c2&quot;&gt;&amp;nbsp; &amp;nbsp; &amp;nbsp; &amp;nbsp; &amp;nbsp; &amp;nbsp; &amp;nbsp; ||&lt;/span&gt;&lt;span style=&quot;color: #abb2bf&quot;&gt; (&lt;/span&gt;&lt;span style=&quot;color: #e06c75&quot;&gt;iph&lt;/span&gt;&lt;span style=&quot;color: #abb2bf&quot;&gt;.&lt;/span&gt;&lt;span style=&quot;color: #e06c75&quot;&gt;protocol&lt;/span&gt;&lt;span style=&quot;color: #abb2bf&quot;&gt; &lt;/span&gt;&lt;span style=&quot;color: #c678dd&quot;&gt;==&lt;/span&gt;&lt;span style=&quot;color: #abb2bf&quot;&gt; &lt;/span&gt;&lt;span style=&quot;color: #61afef&quot;&gt;IPPROTO_SCTP&lt;/span&gt;&lt;/div&gt;&lt;div style=&quot;color: rgb(171 , 178 , 191)&quot;&gt;&lt;span style=&quot;color: #abb2bf&quot;&gt;&lt;/span&gt;&lt;span style=&quot;color: #56b6c2&quot;&gt;&amp;nbsp; &amp;nbsp; &amp;nbsp; &amp;nbsp; &amp;nbsp; &amp;nbsp; &amp;nbsp; &amp;amp;&amp;amp;&lt;/span&gt;&lt;span style=&quot;color: #abb2bf&quot;&gt; &lt;/span&gt;&lt;span style=&quot;color: #56b6c2&quot;&gt;!&lt;/span&gt;&lt;span style=&quot;color: #61afef&quot;&gt;is_sctp_abort&lt;/span&gt;&lt;span style=&quot;color: #abb2bf&quot;&gt;(&lt;/span&gt;&lt;span style=&quot;color: #e06c75 ; font-style: italic&quot;&gt;skb&lt;/span&gt;&lt;span style=&quot;color: #abb2bf&quot;&gt;,&amp;nbsp;&lt;/span&gt;&lt;span style=&quot;color: rgb(224 , 108 , 117)&quot;&gt;iph&lt;/span&gt;.&lt;span style=&quot;color: rgb(224 , 108 , 117)&quot;&gt;len&lt;/span&gt;)))) {&lt;/div&gt;&lt;div&gt;&lt;font color=&quot;#c678dd&quot;&gt;&amp;nbsp; &amp;nbsp; &amp;nbsp; &amp;nbsp; &amp;nbsp; &amp;nbsp; &amp;nbsp; &amp;nbsp;&lt;/font&gt;&lt;span style=&quot;color: rgb(97 , 175 , 239)&quot;&gt;icmp_send&lt;/span&gt;&lt;font color=&quot;#abb2bf&quot;&gt;(&lt;/font&gt;&lt;span style=&quot;color: rgb(224 , 108 , 117) ; font-style: italic&quot;&gt;skb&lt;/span&gt;&lt;font color=&quot;#abb2bf&quot;&gt;,&lt;/font&gt;&lt;span style=&quot;color: rgb(97 , 175 , 239)&quot;&gt;ICMP_DEST_UNREACH&lt;/span&gt;&lt;span style=&quot;color: rgb(171 , 178 , 191)&quot;&gt;,&amp;nbsp;&lt;/span&gt;&lt;span style=&quot;color: rgb(97 , 175 , 239)&quot;&gt;ICMP_PORT_UNREACH&lt;/span&gt;&lt;span style=&quot;color: rgb(171 , 178 , 191)&quot;&gt;, &lt;/span&gt;&lt;span style=&quot;color: rgb(209 , 154 , 102)&quot;&gt;0&lt;/span&gt;&lt;span style=&quot;color: rgb(171 , 178 , 191)&quot;&gt;);&lt;/span&gt;&lt;/div&gt;&lt;div style=&quot;color: rgb(171 , 178 , 191)&quot;&gt;&lt;span style=&quot;color: #abb2bf&quot;&gt;&lt;/span&gt;&lt;span style=&quot;color: #c678dd&quot;&gt;&amp;nbsp; &amp;nbsp; &amp;nbsp; &amp;nbsp; &amp;nbsp; &amp;nbsp; &amp;nbsp; &amp;nbsp;return&lt;/span&gt;&lt;span style=&quot;color: #abb2bf&quot;&gt; &lt;/span&gt;&lt;span style=&quot;color: #61afef&quot;&gt;NF_DROP&lt;/span&gt;&lt;span style=&quot;color: #abb2bf&quot;&gt;;&lt;/span&gt;&lt;/div&gt;&lt;div style=&quot;color: rgb(171 , 178 , 191)&quot;&gt;&lt;span style=&quot;color: #abb2bf&quot;&gt;&amp;nbsp; &amp;nbsp; &amp;nbsp; &amp;nbsp; &amp;nbsp; &amp;nbsp;}&lt;/span&gt;&lt;/div&gt;&lt;div style=&quot;color: rgb(171 , 178 , 191)&quot;&gt;&lt;span style=&quot;color: #abb2bf&quot;&gt;&amp;nbsp; &amp;nbsp; &amp;nbsp; &amp;nbsp;}&lt;/span&gt;&lt;/div&gt;&lt;div style=&quot;color: rgb(171 , 178 , 191)&quot;&gt;&lt;span style=&quot;color: #abb2bf&quot;&gt;&amp;nbsp; &amp;nbsp; }&lt;/span&gt;&lt;/div&gt;&lt;div style=&quot;color: rgb(171 , 178 , 191)&quot;&gt;&lt;span style=&quot;color: #abb2bf&quot;&gt;&lt;/span&gt;&lt;span style=&quot;color: #61afef&quot;&gt;&amp;nbsp; &amp;nbsp;&amp;nbsp;&lt;/span&gt;&lt;/div&gt;&lt;div style=&quot;color: rgb(171 , 178 , 191)&quot;&gt;&lt;span style=&quot;color: #abb2bf&quot;&gt;&lt;/span&gt;&lt;span style=&quot;color: #c678dd&quot;&gt;&amp;nbsp; &amp;nbsp; return&lt;/span&gt;&lt;span style=&quot;color: #abb2bf&quot;&gt; &lt;/span&gt;&lt;span style=&quot;color: #61afef&quot;&gt;NF_ACCEPT&lt;/span&gt;&lt;span style=&quot;color: #abb2bf&quot;&gt;;&lt;/span&gt;&lt;/div&gt;&lt;div style=&quot;color: rgb(171 , 178 , 191)&quot;&gt;&lt;span style=&quot;color: #abb2bf&quot;&gt;}&lt;/span&gt;&lt;/div&gt;&lt;/div&gt;" style="text;whiteSpace=wrap;html=1;" vertex="1" parent="1">
                    <mxGeometry x="70" y="450" width="630" height="1550" as="geometry"/>
                </mxCell>
                <mxCell id="5" value="&lt;div style=&quot;background-color: rgb(40 , 44 , 52) ; font-family: &amp;#34;monaco&amp;#34; , &amp;#34;menlo&amp;#34; , &amp;#34;monaco&amp;#34; , &amp;#34;courier new&amp;#34; , monospace ; font-weight: normal ; font-size: 13px ; line-height: 20px&quot;&gt;&lt;div style=&quot;color: rgb(171 , 178 , 191)&quot;&gt;&lt;span style=&quot;color: #7f848e ; font-style: italic&quot;&gt;/* Handle response packets: rewrite addresses and send away...&lt;/span&gt;&lt;/div&gt;&lt;div style=&quot;color: rgb(171 , 178 , 191)&quot;&gt;&lt;span style=&quot;color: #7f848e ; font-style: italic&quot;&gt; */&lt;/span&gt;&lt;/div&gt;&lt;div style=&quot;color: rgb(171 , 178 , 191)&quot;&gt;&lt;span style=&quot;color: #c678dd&quot;&gt;static&lt;/span&gt;&lt;span style=&quot;color: #abb2bf&quot;&gt; &lt;/span&gt;&lt;span style=&quot;color: #c678dd&quot;&gt;unsigned&lt;/span&gt;&lt;span style=&quot;color: #abb2bf&quot;&gt; &lt;/span&gt;&lt;span style=&quot;color: #c678dd&quot;&gt;int&lt;/span&gt;&lt;/div&gt;&lt;div style=&quot;color: rgb(171 , 178 , 191)&quot;&gt;&lt;span style=&quot;color: #61afef&quot;&gt;handle_response&lt;/span&gt;&lt;span style=&quot;color: #abb2bf&quot;&gt;(&lt;/span&gt;&lt;span style=&quot;color: #c678dd&quot;&gt;int&lt;/span&gt;&lt;span style=&quot;color: #e06c75&quot;&gt; &lt;/span&gt;&lt;span style=&quot;color: #e06c75 ; font-style: italic&quot;&gt;af&lt;/span&gt;&lt;span style=&quot;color: #abb2bf&quot;&gt;,&lt;/span&gt;&lt;span style=&quot;color: #e06c75&quot;&gt; &lt;/span&gt;&lt;span style=&quot;color: #c678dd&quot;&gt;struct&lt;/span&gt;&lt;span style=&quot;color: #e06c75&quot;&gt; &lt;/span&gt;&lt;span style=&quot;color: #e5c07b&quot;&gt;sk_buff&lt;/span&gt;&lt;span style=&quot;color: #e06c75&quot;&gt; &lt;/span&gt;&lt;span style=&quot;color: #c678dd&quot;&gt;*&lt;/span&gt;&lt;span style=&quot;color: #e06c75 ; font-style: italic&quot;&gt;skb&lt;/span&gt;&lt;span style=&quot;color: #abb2bf&quot;&gt;,&lt;/span&gt;&lt;span style=&quot;color: #e06c75&quot;&gt; &lt;/span&gt;&lt;span style=&quot;color: #c678dd&quot;&gt;struct&lt;/span&gt;&lt;span style=&quot;color: #e06c75&quot;&gt; &lt;/span&gt;&lt;span style=&quot;color: #e5c07b&quot;&gt;ip_vs_proto_data&lt;/span&gt;&lt;span style=&quot;color: #e06c75&quot;&gt; &lt;/span&gt;&lt;span style=&quot;color: #c678dd&quot;&gt;*&lt;/span&gt;&lt;span style=&quot;color: #e06c75 ; font-style: italic&quot;&gt;pd&lt;/span&gt;&lt;span style=&quot;color: #abb2bf&quot;&gt;,&lt;/span&gt;&lt;/div&gt;&lt;div style=&quot;color: rgb(171 , 178 , 191)&quot;&gt;&lt;span style=&quot;color: #e06c75&quot;&gt;&lt;/span&gt;&lt;span style=&quot;color: #c678dd&quot;&gt;&amp;nbsp; &amp;nbsp; &amp;nbsp; &amp;nbsp; &amp;nbsp; &amp;nbsp; &amp;nbsp; &amp;nbsp; struct&lt;/span&gt;&lt;span style=&quot;color: #e06c75&quot;&gt; &lt;/span&gt;&lt;span style=&quot;color: #e5c07b&quot;&gt;ip_vs_conn&lt;/span&gt;&lt;span style=&quot;color: #e06c75&quot;&gt; &lt;/span&gt;&lt;span style=&quot;color: #c678dd&quot;&gt;*&lt;/span&gt;&lt;span style=&quot;color: #e06c75 ; font-style: italic&quot;&gt;cp&lt;/span&gt;&lt;span style=&quot;color: #abb2bf&quot;&gt;,&lt;/span&gt;&lt;span style=&quot;color: #e06c75&quot;&gt; &lt;/span&gt;&lt;span style=&quot;color: #c678dd&quot;&gt;struct&lt;/span&gt;&lt;span style=&quot;color: #e06c75&quot;&gt; &lt;/span&gt;&lt;span style=&quot;color: #e5c07b&quot;&gt;ip_vs_iphdr&lt;/span&gt;&lt;span style=&quot;color: #e06c75&quot;&gt; &lt;/span&gt;&lt;span style=&quot;color: #c678dd&quot;&gt;*&lt;/span&gt;&lt;span style=&quot;color: #e06c75 ; font-style: italic&quot;&gt;iph&lt;/span&gt;&lt;span style=&quot;color: #abb2bf&quot;&gt;,&lt;/span&gt;&lt;/div&gt;&lt;div style=&quot;color: rgb(171 , 178 , 191)&quot;&gt;&lt;span style=&quot;color: #e06c75&quot;&gt;&lt;/span&gt;&lt;span style=&quot;color: #c678dd&quot;&gt;&amp;nbsp; &amp;nbsp; &amp;nbsp; &amp;nbsp; &amp;nbsp; &amp;nbsp; &amp;nbsp; &amp;nbsp; unsigned&lt;/span&gt;&lt;span style=&quot;color: #e06c75&quot;&gt; &lt;/span&gt;&lt;span style=&quot;color: #c678dd&quot;&gt;int&lt;/span&gt;&lt;span style=&quot;color: #e06c75&quot;&gt; &lt;/span&gt;&lt;span style=&quot;color: #e06c75 ; font-style: italic&quot;&gt;hooknum&lt;/span&gt;&lt;span style=&quot;color: #abb2bf&quot;&gt;)&lt;/span&gt;&lt;/div&gt;&lt;div style=&quot;color: rgb(171 , 178 , 191)&quot;&gt;&lt;span style=&quot;color: #abb2bf&quot;&gt;{&lt;/span&gt;&lt;/div&gt;&lt;div style=&quot;color: rgb(171 , 178 , 191)&quot;&gt;&lt;span style=&quot;color: #abb2bf&quot;&gt;&lt;/span&gt;&lt;span style=&quot;color: #c678dd&quot;&gt;&amp;nbsp; &amp;nbsp; struct&lt;/span&gt;&lt;span style=&quot;color: #abb2bf&quot;&gt; &lt;/span&gt;&lt;span style=&quot;color: #e5c07b&quot;&gt;ip_vs_protocol&lt;/span&gt;&lt;span style=&quot;color: #abb2bf&quot;&gt; &lt;/span&gt;&lt;span style=&quot;color: #c678dd&quot;&gt;*&lt;/span&gt;&lt;span style=&quot;color: #e06c75&quot;&gt;pp&lt;/span&gt;&lt;span style=&quot;color: #abb2bf&quot;&gt; &lt;/span&gt;&lt;span style=&quot;color: #c678dd&quot;&gt;=&lt;/span&gt;&lt;span style=&quot;color: #abb2bf&quot;&gt; &lt;/span&gt;&lt;span style=&quot;color: #e06c75 ; font-style: italic&quot;&gt;pd&lt;/span&gt;&lt;span style=&quot;color: #abb2bf&quot;&gt;-&amp;gt;&lt;/span&gt;&lt;span style=&quot;color: #e06c75&quot;&gt;pp&lt;/span&gt;&lt;span style=&quot;color: #abb2bf&quot;&gt;;&lt;/span&gt;&lt;/div&gt;&lt;div style=&quot;color: rgb(171 , 178 , 191)&quot;&gt;&lt;span style=&quot;color: #abb2bf&quot;&gt;&lt;/span&gt;&lt;span style=&quot;color: #c678dd&quot;&gt;&amp;nbsp; &amp;nbsp; if&lt;/span&gt;&lt;span style=&quot;color: #abb2bf&quot;&gt; (&lt;/span&gt;&lt;span style=&quot;color: #56b6c2&quot;&gt;!&lt;/span&gt;&lt;span style=&quot;color: #61afef&quot;&gt;skb_make_writable&lt;/span&gt;&lt;span style=&quot;color: #abb2bf&quot;&gt;(&lt;/span&gt;&lt;span style=&quot;color: #e06c75 ; font-style: italic&quot;&gt;skb&lt;/span&gt;&lt;span style=&quot;color: #abb2bf&quot;&gt;, &lt;/span&gt;&lt;span style=&quot;color: #e06c75 ; font-style: italic&quot;&gt;iph&lt;/span&gt;&lt;span style=&quot;color: #abb2bf&quot;&gt;-&amp;gt;&lt;/span&gt;&lt;span style=&quot;color: #e06c75&quot;&gt;len&lt;/span&gt;&lt;span style=&quot;color: #abb2bf&quot;&gt;))&lt;/span&gt;&lt;/div&gt;&lt;div style=&quot;color: rgb(171 , 178 , 191)&quot;&gt;&lt;span style=&quot;color: #abb2bf&quot;&gt;&lt;/span&gt;&lt;span style=&quot;color: #c678dd&quot;&gt;&amp;nbsp; &amp;nbsp; &amp;nbsp; &amp;nbsp; goto&lt;/span&gt;&lt;span style=&quot;color: #abb2bf&quot;&gt; drop;&lt;/span&gt;&lt;/div&gt;&lt;br&gt;&lt;div style=&quot;color: rgb(171 , 178 , 191)&quot;&gt;&lt;span style=&quot;color: #abb2bf&quot;&gt;&lt;/span&gt;&lt;span style=&quot;color: #7f848e ; font-style: italic&quot;&gt;&amp;nbsp; &amp;nbsp; /* mangle the packet */&lt;/span&gt;&lt;/div&gt;&lt;div style=&quot;color: rgb(171 , 178 , 191)&quot;&gt;&lt;span style=&quot;color: #abb2bf&quot;&gt;&lt;/span&gt;&lt;span style=&quot;color: #c678dd&quot;&gt;&amp;nbsp; &amp;nbsp; if&lt;/span&gt;&lt;span style=&quot;color: #abb2bf&quot;&gt; (&lt;/span&gt;&lt;span style=&quot;color: #e06c75&quot;&gt;pp&lt;/span&gt;&lt;span style=&quot;color: #abb2bf&quot;&gt;-&amp;gt;&lt;/span&gt;&lt;span style=&quot;color: #e06c75&quot;&gt;snat_handler&lt;/span&gt;&lt;span style=&quot;color: #abb2bf&quot;&gt; &lt;/span&gt;&lt;span style=&quot;color: #56b6c2&quot;&gt;&amp;amp;&amp;amp;&lt;/span&gt;&lt;span style=&quot;color: #abb2bf&quot;&gt; &lt;/span&gt;&lt;span style=&quot;color: #56b6c2&quot;&gt;!&lt;/span&gt;&lt;span style=&quot;color: #e06c75&quot;&gt;pp&lt;/span&gt;&lt;span style=&quot;color: #abb2bf&quot;&gt;-&amp;gt;&lt;/span&gt;&lt;span style=&quot;color: #e06c75&quot;&gt;snat_handler&lt;/span&gt;&lt;span style=&quot;color: #abb2bf&quot;&gt;(&lt;/span&gt;&lt;span style=&quot;color: #e06c75 ; font-style: italic&quot;&gt;skb&lt;/span&gt;&lt;span style=&quot;color: #abb2bf&quot;&gt;, &lt;/span&gt;&lt;span style=&quot;color: #e06c75&quot;&gt;pp&lt;/span&gt;&lt;span style=&quot;color: #abb2bf&quot;&gt;, &lt;/span&gt;&lt;span style=&quot;color: #e06c75 ; font-style: italic&quot;&gt;cp&lt;/span&gt;&lt;span style=&quot;color: #abb2bf&quot;&gt;, &lt;/span&gt;&lt;span style=&quot;color: #e06c75 ; font-style: italic&quot;&gt;iph&lt;/span&gt;&lt;span style=&quot;color: #abb2bf&quot;&gt;))&lt;/span&gt;&lt;/div&gt;&lt;div style=&quot;color: rgb(171 , 178 , 191)&quot;&gt;&lt;span style=&quot;color: #abb2bf&quot;&gt;&lt;/span&gt;&lt;span style=&quot;color: #c678dd&quot;&gt;&amp;nbsp; &amp;nbsp; &amp;nbsp; &amp;nbsp;goto&lt;/span&gt;&lt;span style=&quot;color: #abb2bf&quot;&gt; drop;&lt;/span&gt;&lt;/div&gt;&lt;br&gt;&lt;div&gt;&lt;font color=&quot;#c678dd&quot;&gt;&amp;nbsp; &amp;nbsp;&amp;nbsp;&lt;/font&gt;&lt;font color=&quot;#abb2bf&quot;&gt;{&lt;/font&gt;&lt;br&gt;&lt;/div&gt;&lt;div style=&quot;color: rgb(171 , 178 , 191)&quot;&gt;&lt;span style=&quot;color: #abb2bf&quot;&gt;&lt;/span&gt;&lt;span style=&quot;color: #61afef&quot;&gt;&amp;nbsp; &amp;nbsp; &amp;nbsp; &amp;nbsp;ip_hdr&lt;/span&gt;&lt;span style=&quot;color: #abb2bf&quot;&gt;(&lt;/span&gt;&lt;span style=&quot;color: #e06c75 ; font-style: italic&quot;&gt;skb&lt;/span&gt;&lt;span style=&quot;color: #abb2bf&quot;&gt;)-&amp;gt;&lt;/span&gt;&lt;span style=&quot;color: #e06c75&quot;&gt;saddr&lt;/span&gt;&lt;span style=&quot;color: #abb2bf&quot;&gt; &lt;/span&gt;&lt;span style=&quot;color: #c678dd&quot;&gt;=&lt;/span&gt;&lt;span style=&quot;color: #abb2bf&quot;&gt; &lt;/span&gt;&lt;span style=&quot;color: #e06c75 ; font-style: italic&quot;&gt;cp&lt;/span&gt;&lt;span style=&quot;color: #abb2bf&quot;&gt;-&amp;gt;&lt;/span&gt;&lt;span style=&quot;color: #e06c75&quot;&gt;vaddr&lt;/span&gt;&lt;span style=&quot;color: #abb2bf&quot;&gt;.&lt;/span&gt;&lt;span style=&quot;color: #e06c75&quot;&gt;ip&lt;/span&gt;&lt;span style=&quot;color: #abb2bf&quot;&gt;;&lt;/span&gt;&lt;/div&gt;&lt;div style=&quot;color: rgb(171 , 178 , 191)&quot;&gt;&lt;span style=&quot;color: #abb2bf&quot;&gt;&lt;/span&gt;&lt;span style=&quot;color: #61afef&quot;&gt;&amp;nbsp; &amp;nbsp; &amp;nbsp; &amp;nbsp;ip_send_check&lt;/span&gt;&lt;span style=&quot;color: #abb2bf&quot;&gt;(&lt;/span&gt;&lt;span style=&quot;color: #61afef&quot;&gt;ip_hdr&lt;/span&gt;&lt;span style=&quot;color: #abb2bf&quot;&gt;(&lt;/span&gt;&lt;span style=&quot;color: #e06c75 ; font-style: italic&quot;&gt;skb&lt;/span&gt;&lt;span style=&quot;color: #abb2bf&quot;&gt;));&lt;/span&gt;&lt;/div&gt;&lt;div style=&quot;color: rgb(171 , 178 , 191)&quot;&gt;&lt;span style=&quot;color: #abb2bf&quot;&gt;&amp;nbsp; &amp;nbsp; }&lt;/span&gt;&lt;/div&gt;&lt;br&gt;&lt;div style=&quot;color: rgb(171 , 178 , 191)&quot;&gt;&lt;span style=&quot;color: #abb2bf&quot;&gt;&lt;/span&gt;&lt;span style=&quot;color: #7f848e ; font-style: italic&quot;&gt;&amp;nbsp; &amp;nbsp; /*&lt;/span&gt;&lt;/div&gt;&lt;div style=&quot;color: rgb(171 , 178 , 191)&quot;&gt;&lt;span style=&quot;color: #7f848e ; font-style: italic&quot;&gt;&amp;nbsp; &amp;nbsp; &amp;nbsp;* nf_iterate does not expect change in the skb-&amp;gt;dst-&amp;gt;dev.&lt;/span&gt;&lt;/div&gt;&lt;div style=&quot;color: rgb(171 , 178 , 191)&quot;&gt;&lt;span style=&quot;color: #7f848e ; font-style: italic&quot;&gt;&amp;nbsp; &amp;nbsp; &amp;nbsp;* It looks like it is not fatal to enable this code for hooks&lt;/span&gt;&lt;/div&gt;&lt;div style=&quot;color: rgb(171 , 178 , 191)&quot;&gt;&lt;span style=&quot;color: #7f848e ; font-style: italic&quot;&gt;&amp;nbsp; &amp;nbsp; &amp;nbsp;* where our handlers are at the end of the chain list and&lt;/span&gt;&lt;/div&gt;&lt;div style=&quot;color: rgb(171 , 178 , 191)&quot;&gt;&lt;span style=&quot;color: #7f848e ; font-style: italic&quot;&gt;&amp;nbsp; &amp;nbsp; &amp;nbsp;* when all next handlers use skb-&amp;gt;dst-&amp;gt;dev and not outdev.&lt;/span&gt;&lt;/div&gt;&lt;div style=&quot;color: rgb(171 , 178 , 191)&quot;&gt;&lt;span style=&quot;color: #7f848e ; font-style: italic&quot;&gt;&amp;nbsp; &amp;nbsp; &amp;nbsp;* It will definitely route properly the inout NAT traffic&lt;/span&gt;&lt;/div&gt;&lt;div style=&quot;color: rgb(171 , 178 , 191)&quot;&gt;&lt;span style=&quot;color: #7f848e ; font-style: italic&quot;&gt;&amp;nbsp; &amp;nbsp; &amp;nbsp;* when multiple paths are used.&lt;/span&gt;&lt;/div&gt;&lt;div style=&quot;color: rgb(171 , 178 , 191)&quot;&gt;&lt;span style=&quot;color: #7f848e ; font-style: italic&quot;&gt;&amp;nbsp; &amp;nbsp; &amp;nbsp;*/&lt;/span&gt;&lt;/div&gt;&lt;br&gt;&lt;div style=&quot;color: rgb(171 , 178 , 191)&quot;&gt;&lt;span style=&quot;color: #abb2bf&quot;&gt;&lt;/span&gt;&lt;span style=&quot;color: #7f848e ; font-style: italic&quot;&gt;&amp;nbsp; &amp;nbsp; /* For policy routing, packets originating from this&lt;/span&gt;&lt;/div&gt;&lt;div style=&quot;color: rgb(171 , 178 , 191)&quot;&gt;&lt;span style=&quot;color: #7f848e ; font-style: italic&quot;&gt;&amp;nbsp; &amp;nbsp; &amp;nbsp;* machine itself may be routed differently to packets&lt;/span&gt;&lt;/div&gt;&lt;div style=&quot;color: rgb(171 , 178 , 191)&quot;&gt;&lt;span style=&quot;color: #7f848e ; font-style: italic&quot;&gt;&amp;nbsp; &amp;nbsp; &amp;nbsp;* passing through.  We want this packet to be routed as&lt;/span&gt;&lt;/div&gt;&lt;div style=&quot;color: rgb(171 , 178 , 191)&quot;&gt;&lt;span style=&quot;color: #7f848e ; font-style: italic&quot;&gt;&amp;nbsp; &amp;nbsp; &amp;nbsp;* if it came from this machine itself.  So re-compute&lt;/span&gt;&lt;/div&gt;&lt;div style=&quot;color: rgb(171 , 178 , 191)&quot;&gt;&lt;span style=&quot;color: #7f848e ; font-style: italic&quot;&gt;&amp;nbsp; &amp;nbsp; &amp;nbsp;* the routing information.&lt;/span&gt;&lt;/div&gt;&lt;div style=&quot;color: rgb(171 , 178 , 191)&quot;&gt;&lt;span style=&quot;color: #7f848e ; font-style: italic&quot;&gt;&amp;nbsp; &amp;nbsp; &amp;nbsp;*/&lt;/span&gt;&lt;/div&gt;&lt;div style=&quot;color: rgb(171 , 178 , 191)&quot;&gt;&lt;span style=&quot;color: #abb2bf&quot;&gt;&lt;/span&gt;&lt;span style=&quot;color: #c678dd&quot;&gt;&amp;nbsp; &amp;nbsp; if&lt;/span&gt;&lt;span style=&quot;color: #abb2bf&quot;&gt; (&lt;/span&gt;&lt;span style=&quot;color: #61afef&quot;&gt;ip_vs_route_me_harder&lt;/span&gt;&lt;span style=&quot;color: #abb2bf&quot;&gt;(&lt;/span&gt;&lt;span style=&quot;color: #e06c75 ; font-style: italic&quot;&gt;af&lt;/span&gt;&lt;span style=&quot;color: #abb2bf&quot;&gt;, &lt;/span&gt;&lt;span style=&quot;color: #e06c75 ; font-style: italic&quot;&gt;skb&lt;/span&gt;&lt;span style=&quot;color: #abb2bf&quot;&gt;, &lt;/span&gt;&lt;span style=&quot;color: #e06c75 ; font-style: italic&quot;&gt;hooknum&lt;/span&gt;&lt;span style=&quot;color: #abb2bf&quot;&gt;))&lt;/span&gt;&lt;/div&gt;&lt;div style=&quot;color: rgb(171 , 178 , 191)&quot;&gt;&lt;span style=&quot;color: #abb2bf&quot;&gt;&lt;/span&gt;&lt;span style=&quot;color: #c678dd&quot;&gt;&amp;nbsp; &amp;nbsp; &amp;nbsp; &amp;nbsp; goto&lt;/span&gt;&lt;span style=&quot;color: #abb2bf&quot;&gt; drop;&lt;/span&gt;&lt;/div&gt;&lt;div style=&quot;color: rgb(171 , 178 , 191)&quot;&gt;&lt;span style=&quot;color: #abb2bf&quot;&gt;&lt;/span&gt;&lt;span style=&quot;color: #61afef&quot;&gt;&amp;nbsp; &amp;nbsp; ip_vs_out_stats&lt;/span&gt;&lt;span style=&quot;color: #abb2bf&quot;&gt;(&lt;/span&gt;&lt;span style=&quot;color: #e06c75 ; font-style: italic&quot;&gt;cp&lt;/span&gt;&lt;span style=&quot;color: #abb2bf&quot;&gt;, &lt;/span&gt;&lt;span style=&quot;color: #e06c75 ; font-style: italic&quot;&gt;skb&lt;/span&gt;&lt;span style=&quot;color: #abb2bf&quot;&gt;);&lt;/span&gt;&lt;/div&gt;&lt;div style=&quot;color: rgb(171 , 178 , 191)&quot;&gt;&lt;span style=&quot;color: #abb2bf&quot;&gt;&lt;/span&gt;&lt;span style=&quot;color: #61afef&quot;&gt;&amp;nbsp; &amp;nbsp; ip_vs_set_state&lt;/span&gt;&lt;span style=&quot;color: #abb2bf&quot;&gt;(&lt;/span&gt;&lt;span style=&quot;color: #e06c75 ; font-style: italic&quot;&gt;cp&lt;/span&gt;&lt;span style=&quot;color: #abb2bf&quot;&gt;, &lt;/span&gt;&lt;span style=&quot;color: #56b6c2&quot;&gt;IP_VS_DIR_OUTPUT&lt;/span&gt;&lt;span style=&quot;color: #abb2bf&quot;&gt;, &lt;/span&gt;&lt;span style=&quot;color: #e06c75 ; font-style: italic&quot;&gt;skb&lt;/span&gt;&lt;span style=&quot;color: #abb2bf&quot;&gt;, &lt;/span&gt;&lt;span style=&quot;color: #e06c75 ; font-style: italic&quot;&gt;pd&lt;/span&gt;&lt;span style=&quot;color: #abb2bf&quot;&gt;);&lt;/span&gt;&lt;/div&gt;&lt;div style=&quot;color: rgb(171 , 178 , 191)&quot;&gt;&lt;span style=&quot;color: #abb2bf&quot;&gt;&lt;/span&gt;&lt;span style=&quot;color: #e06c75 ; font-style: italic&quot;&gt;&amp;nbsp; &amp;nbsp; skb&lt;/span&gt;&lt;span style=&quot;color: #abb2bf&quot;&gt;-&amp;gt;&lt;/span&gt;&lt;span style=&quot;color: #e06c75&quot;&gt;ipvs_property&lt;/span&gt;&lt;span style=&quot;color: #abb2bf&quot;&gt; &lt;/span&gt;&lt;span style=&quot;color: #c678dd&quot;&gt;=&lt;/span&gt;&lt;span style=&quot;color: #abb2bf&quot;&gt; &lt;/span&gt;&lt;span style=&quot;color: #d19a66&quot;&gt;1&lt;/span&gt;&lt;span style=&quot;color: #abb2bf&quot;&gt;;&lt;/span&gt;&lt;/div&gt;&lt;div style=&quot;color: rgb(171 , 178 , 191)&quot;&gt;&lt;span style=&quot;color: #abb2bf&quot;&gt;&lt;/span&gt;&lt;span style=&quot;color: #c678dd&quot;&gt;&amp;nbsp; &amp;nbsp; if&lt;/span&gt;&lt;span style=&quot;color: #abb2bf&quot;&gt; (&lt;/span&gt;&lt;span style=&quot;color: #56b6c2&quot;&gt;!&lt;/span&gt;&lt;span style=&quot;color: #abb2bf&quot;&gt;(&lt;/span&gt;&lt;span style=&quot;color: #e06c75 ; font-style: italic&quot;&gt;cp&lt;/span&gt;&lt;span style=&quot;color: #abb2bf&quot;&gt;-&amp;gt;&lt;/span&gt;&lt;span style=&quot;color: #e06c75&quot;&gt;flags&lt;/span&gt;&lt;span style=&quot;color: #abb2bf&quot;&gt; &lt;/span&gt;&lt;span style=&quot;color: #c678dd&quot;&gt;&amp;amp;&lt;/span&gt;&lt;span style=&quot;color: #abb2bf&quot;&gt; &lt;/span&gt;&lt;span style=&quot;color: #61afef&quot;&gt;IP_VS_CONN_F_NFCT&lt;/span&gt;&lt;span style=&quot;color: #abb2bf&quot;&gt;))&lt;/span&gt;&lt;/div&gt;&lt;div style=&quot;color: rgb(171 , 178 , 191)&quot;&gt;&lt;span style=&quot;color: #abb2bf&quot;&gt;&lt;/span&gt;&lt;span style=&quot;color: #61afef&quot;&gt;&amp;nbsp; &amp;nbsp; &amp;nbsp; &amp;nbsp; ip_vs_notrack&lt;/span&gt;&lt;span style=&quot;color: #abb2bf&quot;&gt;(&lt;/span&gt;&lt;span style=&quot;color: #e06c75 ; font-style: italic&quot;&gt;skb&lt;/span&gt;&lt;span style=&quot;color: #abb2bf&quot;&gt;);&lt;/span&gt;&lt;/div&gt;&lt;div style=&quot;color: rgb(171 , 178 , 191)&quot;&gt;&lt;span style=&quot;color: #abb2bf&quot;&gt;&lt;/span&gt;&lt;span style=&quot;color: #c678dd&quot;&gt;&amp;nbsp; &amp;nbsp; else&lt;/span&gt;&lt;/div&gt;&lt;div style=&quot;color: rgb(171 , 178 , 191)&quot;&gt;&lt;span style=&quot;color: #abb2bf&quot;&gt;&lt;/span&gt;&lt;span style=&quot;color: #61afef&quot;&gt;&amp;nbsp; &amp;nbsp; &amp;nbsp; &amp;nbsp; ip_vs_update_conntrack&lt;/span&gt;&lt;span style=&quot;color: #abb2bf&quot;&gt;(&lt;/span&gt;&lt;span style=&quot;color: #e06c75 ; font-style: italic&quot;&gt;skb&lt;/span&gt;&lt;span style=&quot;color: #abb2bf&quot;&gt;, &lt;/span&gt;&lt;span style=&quot;color: #e06c75 ; font-style: italic&quot;&gt;cp&lt;/span&gt;&lt;span style=&quot;color: #abb2bf&quot;&gt;, &lt;/span&gt;&lt;span style=&quot;color: #d19a66&quot;&gt;0&lt;/span&gt;&lt;span style=&quot;color: #abb2bf&quot;&gt;);&lt;/span&gt;&lt;/div&gt;&lt;div style=&quot;color: rgb(171 , 178 , 191)&quot;&gt;&lt;span style=&quot;color: #abb2bf&quot;&gt;&lt;/span&gt;&lt;span style=&quot;color: #61afef&quot;&gt;&amp;nbsp; &amp;nbsp; ip_vs_conn_put&lt;/span&gt;&lt;span style=&quot;color: #abb2bf&quot;&gt;(&lt;/span&gt;&lt;span style=&quot;color: #e06c75 ; font-style: italic&quot;&gt;cp&lt;/span&gt;&lt;span style=&quot;color: #abb2bf&quot;&gt;);&lt;/span&gt;&lt;/div&gt;&lt;br&gt;&lt;div style=&quot;color: rgb(171 , 178 , 191)&quot;&gt;&lt;br&gt;&lt;/div&gt;&lt;div style=&quot;color: rgb(171 , 178 , 191)&quot;&gt;&lt;span style=&quot;color: #abb2bf&quot;&gt;&lt;/span&gt;&lt;span style=&quot;color: #c678dd&quot;&gt;&amp;nbsp; &amp;nbsp; return&lt;/span&gt;&lt;span style=&quot;color: #abb2bf&quot;&gt; &lt;/span&gt;&lt;span style=&quot;color: #61afef&quot;&gt;NF_ACCEPT&lt;/span&gt;&lt;span style=&quot;color: #abb2bf&quot;&gt;;&lt;/span&gt;&lt;/div&gt;&lt;br&gt;&lt;div style=&quot;color: rgb(171 , 178 , 191)&quot;&gt;&lt;span style=&quot;color: #abb2bf&quot;&gt;drop:&lt;/span&gt;&lt;/div&gt;&lt;div style=&quot;color: rgb(171 , 178 , 191)&quot;&gt;&lt;span style=&quot;color: #abb2bf&quot;&gt;&lt;/span&gt;&lt;span style=&quot;color: #61afef&quot;&gt;&amp;nbsp; &amp;nbsp; ip_vs_conn_put&lt;/span&gt;&lt;span style=&quot;color: #abb2bf&quot;&gt;(&lt;/span&gt;&lt;span style=&quot;color: #e06c75 ; font-style: italic&quot;&gt;cp&lt;/span&gt;&lt;span style=&quot;color: #abb2bf&quot;&gt;);&lt;/span&gt;&lt;/div&gt;&lt;div style=&quot;color: rgb(171 , 178 , 191)&quot;&gt;&lt;span style=&quot;color: #abb2bf&quot;&gt;&lt;/span&gt;&lt;span style=&quot;color: #61afef&quot;&gt;&amp;nbsp; &amp;nbsp; kfree_skb&lt;/span&gt;&lt;span style=&quot;color: #abb2bf&quot;&gt;(&lt;/span&gt;&lt;span style=&quot;color: #e06c75 ; font-style: italic&quot;&gt;skb&lt;/span&gt;&lt;span style=&quot;color: #abb2bf&quot;&gt;);&lt;/span&gt;&lt;/div&gt;&lt;div style=&quot;color: rgb(171 , 178 , 191)&quot;&gt;&lt;br&gt;&lt;/div&gt;&lt;div style=&quot;color: rgb(171 , 178 , 191)&quot;&gt;&lt;span style=&quot;color: #abb2bf&quot;&gt;&lt;/span&gt;&lt;span style=&quot;color: #c678dd&quot;&gt;&amp;nbsp; &amp;nbsp; return&lt;/span&gt;&lt;span style=&quot;color: #abb2bf&quot;&gt; &lt;/span&gt;&lt;span style=&quot;color: #61afef&quot;&gt;NF_STOLEN&lt;/span&gt;&lt;span style=&quot;color: #abb2bf&quot;&gt;;&lt;/span&gt;&lt;/div&gt;&lt;div style=&quot;color: rgb(171 , 178 , 191)&quot;&gt;&lt;span style=&quot;color: #abb2bf&quot;&gt;}&lt;/span&gt;&lt;/div&gt;&lt;/div&gt;" style="text;whiteSpace=wrap;html=1;" vertex="1" parent="1">
                    <mxGeometry x="980" y="160" width="580" height="1110" as="geometry"/>
                </mxCell>
            </root>
        </mxGraphModel>
    </diagram>
</mxfile>